STARTFONT 2.1
COMMENT
COMMENT Converted from OpenType font "EncodeSans-VariableFont_wdth,wght.ttf" by "otf2bdf 3.0".
COMMENT
FONT -FreeType-Encode Sans Condensed Thin-Medium-R-Normal--19-190-72-72-P-74-ISO10646-1
SIZE 19 72 72
FONTBOUNDINGBOX 23 24 -3 -4
STARTPROPERTIES 19
FOUNDRY "FreeType"
FAMILY_NAME "Encode Sans Condensed Thin"
WEIGHT_NAME "Medium"
SLANT "R"
SETWIDTH_NAME "Normal"
ADD_STYLE_NAME ""
PIXEL_SIZE 19
POINT_SIZE 190
RESOLUTION_X 72
RESOLUTION_Y 72
SPACING "P"
AVERAGE_WIDTH 74
CHARSET_REGISTRY "ISO10646"
CHARSET_ENCODING "1"
FONT_ASCENT 19
FONT_DESCENT 4
COPYRIGHT "Copyright 2020 The Encode Project Authors (https://github.com/thundernixon/Encode-Sans), with Reserved Font Name 'Encode Sans'."
_OTF_FONTFILE "EncodeSans-VariableFont_wdth,wght.ttf"
_OTF_PSNAME "EncodeSans-CondensedThin"
ENDPROPERTIES
CHARS 687
STARTCHAR 0000
ENCODING 0
SWIDTH 0 0
DWIDTH 0 0
BBX 0 0 0 0
BITMAP
ENDCHAR
STARTCHAR 000D
ENCODING 13
SWIDTH 210 0
DWIDTH 4 0
BBX 0 0 0 0
BITMAP
ENDCHAR
STARTCHAR 0020
ENCODING 32
SWIDTH 210 0
DWIDTH 4 0
BBX 0 0 0 0
BITMAP
ENDCHAR
STARTCHAR 0021
ENCODING 33
SWIDTH 210 0
DWIDTH 4 0
BBX 1 14 1 0
BITMAP
80
80
80
80
80
80
80
80
80
80
80
00
00
80
ENDCHAR
STARTCHAR 0022
ENCODING 34
SWIDTH 315 0
DWIDTH 6 0
BBX 3 6 1 9
BITMAP
A0
A0
A0
A0
A0
A0
ENDCHAR
STARTCHAR 0023
ENCODING 35
SWIDTH 526 0
DWIDTH 10 0
BBX 8 14 1 0
BITMAP
24
24
24
24
FF
24
24
24
24
FF
48
48
48
48
ENDCHAR
STARTCHAR 0024
ENCODING 36
SWIDTH 421 0
DWIDTH 8 0
BBX 7 18 1 -2
BITMAP
10
10
6C
80
80
80
80
80
60
18
04
02
02
02
04
F8
10
10
ENDCHAR
STARTCHAR 0025
ENCODING 37
SWIDTH 789 0
DWIDTH 15 0
BBX 13 14 1 0
BITMAP
7080
8880
8900
8900
8900
8A60
8A90
4A88
3508
0508
0508
0908
0888
08F0
ENDCHAR
STARTCHAR 0026
ENCODING 38
SWIDTH 631 0
DWIDTH 12 0
BBX 11 14 1 0
BITMAP
1F00
2000
2000
4000
2000
2000
2000
5080
8880
8680
8180
8080
4140
3E20
ENDCHAR
STARTCHAR 0027
ENCODING 39
SWIDTH 157 0
DWIDTH 3 0
BBX 1 6 1 9
BITMAP
80
80
80
80
80
80
ENDCHAR
STARTCHAR 0028
ENCODING 40
SWIDTH 263 0
DWIDTH 5 0
BBX 4 19 1 -4
BITMAP
30
20
40
40
40
80
80
80
80
80
80
80
80
80
40
40
40
20
30
ENDCHAR
STARTCHAR 0029
ENCODING 41
SWIDTH 263 0
DWIDTH 5 0
BBX 3 19 1 -4
BITMAP
80
80
40
40
20
20
20
20
20
20
20
20
20
20
20
40
40
80
80
ENDCHAR
STARTCHAR 002A
ENCODING 42
SWIDTH 421 0
DWIDTH 8 0
BBX 8 7 0 8
BITMAP
10
10
F7
18
18
24
44
ENDCHAR
STARTCHAR 002B
ENCODING 43
SWIDTH 526 0
DWIDTH 10 0
BBX 7 7 1 4
BITMAP
10
10
10
FE
10
10
10
ENDCHAR
STARTCHAR 002C
ENCODING 44
SWIDTH 157 0
DWIDTH 3 0
BBX 1 4 1 -3
BITMAP
80
80
80
80
ENDCHAR
STARTCHAR 002D
ENCODING 45
SWIDTH 315 0
DWIDTH 6 0
BBX 4 1 1 5
BITMAP
F0
ENDCHAR
STARTCHAR 002E
ENCODING 46
SWIDTH 157 0
DWIDTH 3 0
BBX 1 1 1 0
BITMAP
80
ENDCHAR
STARTCHAR 002F
ENCODING 47
SWIDTH 210 0
DWIDTH 4 0
BBX 4 17 0 -2
BITMAP
10
10
10
20
20
20
20
20
40
40
40
40
40
40
80
80
80
ENDCHAR
STARTCHAR 0030
ENCODING 48
SWIDTH 526 0
DWIDTH 10 0
BBX 8 14 1 0
BITMAP
3C
42
82
81
81
81
81
81
81
81
81
82
42
3C
ENDCHAR
STARTCHAR 0031
ENCODING 49
SWIDTH 263 0
DWIDTH 5 0
BBX 4 14 0 0
BITMAP
30
50
90
10
10
10
10
10
10
10
10
10
10
10
ENDCHAR
STARTCHAR 0032
ENCODING 50
SWIDTH 421 0
DWIDTH 8 0
BBX 7 14 0 0
BITMAP
F8
04
02
02
04
04
04
08
10
10
20
20
40
FE
ENDCHAR
STARTCHAR 0033
ENCODING 51
SWIDTH 421 0
DWIDTH 8 0
BBX 7 14 0 0
BITMAP
7C
02
02
02
02
04
38
04
02
02
02
02
02
FC
ENDCHAR
STARTCHAR 0034
ENCODING 52
SWIDTH 473 0
DWIDTH 9 0
BBX 9 14 0 0
BITMAP
0400
0400
0800
0800
1000
1200
2200
2200
4200
4200
BF80
0200
0200
0200
ENDCHAR
STARTCHAR 0035
ENCODING 53
SWIDTH 421 0
DWIDTH 8 0
BBX 7 14 1 0
BITMAP
7C
80
80
80
80
80
F0
0C
04
02
02
02
04
F8
ENDCHAR
STARTCHAR 0036
ENCODING 54
SWIDTH 473 0
DWIDTH 9 0
BBX 8 14 1 0
BITMAP
3E
40
40
80
80
80
BC
C2
82
81
81
41
42
3C
ENDCHAR
STARTCHAR 0037
ENCODING 55
SWIDTH 368 0
DWIDTH 7 0
BBX 7 14 0 0
BITMAP
FE
02
04
04
04
08
08
08
10
10
10
20
20
60
ENDCHAR
STARTCHAR 0038
ENCODING 56
SWIDTH 526 0
DWIDTH 10 0
BBX 8 14 1 0
BITMAP
3C
42
81
81
81
42
34
4C
82
81
81
81
81
7E
ENDCHAR
STARTCHAR 0039
ENCODING 57
SWIDTH 473 0
DWIDTH 9 0
BBX 8 14 0 0
BITMAP
3C
42
82
81
81
41
43
3D
01
01
01
02
02
7C
ENDCHAR
STARTCHAR 003A
ENCODING 58
SWIDTH 157 0
DWIDTH 3 0
BBX 1 10 1 0
BITMAP
80
00
00
00
00
00
00
00
00
80
ENDCHAR
STARTCHAR 003B
ENCODING 59
SWIDTH 157 0
DWIDTH 3 0
BBX 1 13 1 -3
BITMAP
80
00
00
00
00
00
00
00
00
80
80
80
80
ENDCHAR
STARTCHAR 003C
ENCODING 60
SWIDTH 526 0
DWIDTH 10 0
BBX 7 7 1 4
BITMAP
02
04
38
C0
60
18
06
ENDCHAR
STARTCHAR 003D
ENCODING 61
SWIDTH 526 0
DWIDTH 10 0
BBX 7 4 1 5
BITMAP
FE
00
00
FE
ENDCHAR
STARTCHAR 003E
ENCODING 62
SWIDTH 526 0
DWIDTH 10 0
BBX 7 7 1 4
BITMAP
80
60
18
06
0C
30
C0
ENDCHAR
STARTCHAR 003F
ENCODING 63
SWIDTH 368 0
DWIDTH 7 0
BBX 7 14 0 0
BITMAP
FC
04
02
02
02
04
08
10
10
10
10
00
00
10
ENDCHAR
STARTCHAR 0040
ENCODING 64
SWIDTH 789 0
DWIDTH 15 0
BBX 13 18 1 -4
BITMAP
1FC0
2020
4010
4610
8990
8088
8088
8088
8388
8C88
9088
9088
9090
8F70
4000
4000
2000
1FC0
ENDCHAR
STARTCHAR 0041
ENCODING 65
SWIDTH 578 0
DWIDTH 11 0
BBX 10 14 0 0
BITMAP
0400
0C00
0A00
0A00
1200
1100
1100
2100
3F80
2080
4080
4040
4040
8040
ENDCHAR
STARTCHAR 0042
ENCODING 66
SWIDTH 526 0
DWIDTH 10 0
BBX 8 14 2 0
BITMAP
FC
82
82
82
82
82
FC
84
82
81
81
81
82
FC
ENDCHAR
STARTCHAR 0043
ENCODING 67
SWIDTH 473 0
DWIDTH 9 0
BBX 8 14 1 0
BITMAP
3F
40
80
80
80
80
80
80
80
80
80
40
40
3F
ENDCHAR
STARTCHAR 0044
ENCODING 68
SWIDTH 578 0
DWIDTH 11 0
BBX 8 14 2 0
BITMAP
F8
86
82
81
81
81
81
81
81
81
81
82
84
F8
ENDCHAR
STARTCHAR 0045
ENCODING 69
SWIDTH 473 0
DWIDTH 9 0
BBX 7 14 2 0
BITMAP
FE
80
80
80
80
80
FC
80
80
80
80
80
80
FE
ENDCHAR
STARTCHAR 0046
ENCODING 70
SWIDTH 473 0
DWIDTH 9 0
BBX 6 14 2 0
BITMAP
FC
80
80
80
80
80
FC
80
80
80
80
80
80
80
ENDCHAR
STARTCHAR 0047
ENCODING 71
SWIDTH 578 0
DWIDTH 11 0
BBX 8 14 1 0
BITMAP
3F
40
40
80
80
80
80
81
81
81
81
41
61
1F
ENDCHAR
STARTCHAR 0048
ENCODING 72
SWIDTH 631 0
DWIDTH 12 0
BBX 8 14 2 0
BITMAP
81
81
81
81
81
81
FF
81
81
81
81
81
81
81
ENDCHAR
STARTCHAR 0049
ENCODING 73
SWIDTH 210 0
DWIDTH 4 0
BBX 1 14 1 0
BITMAP
80
80
80
80
80
80
80
80
80
80
80
80
80
80
ENDCHAR
STARTCHAR 004A
ENCODING 74
SWIDTH 210 0
DWIDTH 4 0
BBX 2 17 0 -3
BITMAP
40
40
40
40
40
40
40
40
40
40
40
40
40
40
40
40
80
ENDCHAR
STARTCHAR 004B
ENCODING 75
SWIDTH 526 0
DWIDTH 10 0
BBX 8 14 2 0
BITMAP
81
82
84
88
90
90
E0
A0
90
88
84
84
82
81
ENDCHAR
STARTCHAR 004C
ENCODING 76
SWIDTH 421 0
DWIDTH 8 0
BBX 6 14 2 0
BITMAP
80
80
80
80
80
80
80
80
80
80
80
80
80
FC
ENDCHAR
STARTCHAR 004D
ENCODING 77
SWIDTH 736 0
DWIDTH 14 0
BBX 11 14 2 0
BITMAP
8020
8060
8060
C0A0
C0A0
A0A0
A120
9120
9220
8A20
8C20
8420
8020
8020
ENDCHAR
STARTCHAR 004E
ENCODING 78
SWIDTH 631 0
DWIDTH 12 0
BBX 8 14 2 0
BITMAP
81
81
C1
C1
A1
91
91
89
89
85
85
83
81
81
ENDCHAR
STARTCHAR 004F
ENCODING 79
SWIDTH 578 0
DWIDTH 11 0
BBX 9 14 1 0
BITMAP
3E00
4100
8080
8080
8080
8080
8080
8080
8080
8080
8080
8080
4100
3E00
ENDCHAR
STARTCHAR 0050
ENCODING 80
SWIDTH 526 0
DWIDTH 10 0
BBX 7 14 2 0
BITMAP
F8
84
82
82
82
82
82
84
F8
80
80
80
80
80
ENDCHAR
STARTCHAR 0051
ENCODING 81
SWIDTH 578 0
DWIDTH 11 0
BBX 9 16 1 -2
BITMAP
3E00
4100
8080
8080
8080
8080
8080
8080
8080
8080
8080
8080
4100
3600
0C00
0380
ENDCHAR
STARTCHAR 0052
ENCODING 82
SWIDTH 578 0
DWIDTH 11 0
BBX 8 14 2 0
BITMAP
FC
82
82
82
82
82
84
F8
90
88
84
82
82
81
ENDCHAR
STARTCHAR 0053
ENCODING 83
SWIDTH 421 0
DWIDTH 8 0
BBX 7 14 1 0
BITMAP
7C
80
80
80
80
80
60
18
04
02
02
02
04
F8
ENDCHAR
STARTCHAR 0054
ENCODING 84
SWIDTH 473 0
DWIDTH 9 0
BBX 9 14 0 0
BITMAP
FF80
0800
0800
0800
0800
0800
0800
0800
0800
0800
0800
0800
0800
0800
ENDCHAR
STARTCHAR 0055
ENCODING 85
SWIDTH 578 0
DWIDTH 11 0
BBX 9 14 1 0
BITMAP
8080
8080
8080
8080
8080
8080
8080
8080
8080
8080
8080
4080
4100
3E00
ENDCHAR
STARTCHAR 0056
ENCODING 86
SWIDTH 526 0
DWIDTH 10 0
BBX 10 14 0 0
BITMAP
8040
8040
4040
4080
4080
2080
2100
2100
1100
1200
1200
0A00
0C00
0400
ENDCHAR
STARTCHAR 0057
ENCODING 87
SWIDTH 894 0
DWIDTH 17 0
BBX 15 14 1 0
BITMAP
8102
8302
8282
8282
4284
4484
4444
4444
2448
2848
2828
2828
1030
1010
ENDCHAR
STARTCHAR 0058
ENCODING 88
SWIDTH 526 0
DWIDTH 10 0
BBX 10 14 0 0
BITMAP
C040
4080
2100
2100
1200
0C00
0C00
0C00
0A00
1200
2100
2100
4080
8040
ENDCHAR
STARTCHAR 0059
ENCODING 89
SWIDTH 473 0
DWIDTH 9 0
BBX 9 14 0 0
BITMAP
8080
4080
4100
2200
2200
1400
0C00
0800
0800
0800
0800
0800
0800
0800
ENDCHAR
STARTCHAR 005A
ENCODING 90
SWIDTH 473 0
DWIDTH 9 0
BBX 8 14 1 0
BITMAP
FE
02
04
04
08
08
10
10
20
20
40
40
80
FF
ENDCHAR
STARTCHAR 005B
ENCODING 91
SWIDTH 263 0
DWIDTH 5 0
BBX 4 19 2 -4
BITMAP
F0
80
80
80
80
80
80
80
80
80
80
80
80
80
80
80
80
80
F0
ENDCHAR
STARTCHAR 005C
ENCODING 92
SWIDTH 210 0
DWIDTH 4 0
BBX 4 17 0 -2
BITMAP
80
80
80
40
40
40
40
40
40
20
20
20
20
20
10
10
10
ENDCHAR
STARTCHAR 005D
ENCODING 93
SWIDTH 263 0
DWIDTH 5 0
BBX 3 19 0 -4
BITMAP
E0
20
20
20
20
20
20
20
20
20
20
20
20
20
20
20
20
20
E0
ENDCHAR
STARTCHAR 005E
ENCODING 94
SWIDTH 526 0
DWIDTH 10 0
BBX 7 7 1 7
BITMAP
10
28
24
24
44
42
82
ENDCHAR
STARTCHAR 005F
ENCODING 95
SWIDTH 473 0
DWIDTH 9 0
BBX 7 1 1 -1
BITMAP
FE
ENDCHAR
STARTCHAR 0060
ENCODING 96
SWIDTH 421 0
DWIDTH 8 0
BBX 2 3 4 12
BITMAP
80
40
40
ENDCHAR
STARTCHAR 0061
ENCODING 97
SWIDTH 421 0
DWIDTH 8 0
BBX 6 10 1 0
BITMAP
F8
04
04
04
3C
C4
84
84
84
7C
ENDCHAR
STARTCHAR 0062
ENCODING 98
SWIDTH 473 0
DWIDTH 9 0
BBX 7 15 1 0
BITMAP
80
80
80
80
90
EC
84
82
82
82
82
82
82
84
F8
ENDCHAR
STARTCHAR 0063
ENCODING 99
SWIDTH 368 0
DWIDTH 7 0
BBX 6 10 1 0
BITMAP
7C
80
80
80
80
80
80
80
80
7C
ENDCHAR
STARTCHAR 0064
ENCODING 100
SWIDTH 473 0
DWIDTH 9 0
BBX 6 15 1 0
BITMAP
04
04
04
04
1C
64
84
84
84
84
84
84
84
84
7C
ENDCHAR
STARTCHAR 0065
ENCODING 101
SWIDTH 421 0
DWIDTH 8 0
BBX 6 10 1 0
BITMAP
78
84
84
84
FC
80
80
80
80
7C
ENDCHAR
STARTCHAR 0066
ENCODING 102
SWIDTH 263 0
DWIDTH 5 0
BBX 6 16 0 0
BITMAP
1C
20
20
20
20
20
F8
20
20
20
20
20
20
20
20
20
ENDCHAR
STARTCHAR 0067
ENCODING 103
SWIDTH 473 0
DWIDTH 9 0
BBX 6 14 1 -4
BITMAP
7C
84
84
84
84
84
84
84
84
7C
04
04
04
F8
ENDCHAR
STARTCHAR 0068
ENCODING 104
SWIDTH 473 0
DWIDTH 9 0
BBX 7 15 1 0
BITMAP
80
80
80
80
98
E4
82
82
82
82
82
82
82
82
82
ENDCHAR
STARTCHAR 0069
ENCODING 105
SWIDTH 157 0
DWIDTH 3 0
BBX 1 14 1 0
BITMAP
80
00
00
00
80
80
80
80
80
80
80
80
80
80
ENDCHAR
STARTCHAR 006A
ENCODING 106
SWIDTH 157 0
DWIDTH 3 0
BBX 2 18 0 -4
BITMAP
40
00
00
00
40
40
40
40
40
40
40
40
40
40
40
40
80
80
ENDCHAR
STARTCHAR 006B
ENCODING 107
SWIDTH 421 0
DWIDTH 8 0
BBX 7 15 1 0
BITMAP
80
80
80
80
82
84
84
88
90
E0
90
88
88
84
82
ENDCHAR
STARTCHAR 006C
ENCODING 108
SWIDTH 157 0
DWIDTH 3 0
BBX 1 15 1 0
BITMAP
80
80
80
80
80
80
80
80
80
80
80
80
80
80
80
ENDCHAR
STARTCHAR 006D
ENCODING 109
SWIDTH 736 0
DWIDTH 14 0
BBX 12 10 1 0
BITMAP
FDE0
8610
8410
8410
8410
8410
8410
8410
8410
8410
ENDCHAR
STARTCHAR 006E
ENCODING 110
SWIDTH 473 0
DWIDTH 9 0
BBX 7 10 1 0
BITMAP
FC
82
82
82
82
82
82
82
82
82
ENDCHAR
STARTCHAR 006F
ENCODING 111
SWIDTH 473 0
DWIDTH 9 0
BBX 7 10 1 0
BITMAP
7C
84
82
82
82
82
82
82
84
78
ENDCHAR
STARTCHAR 0070
ENCODING 112
SWIDTH 473 0
DWIDTH 9 0
BBX 7 14 1 -4
BITMAP
FC
84
82
82
82
82
82
82
84
F8
80
80
80
80
ENDCHAR
STARTCHAR 0071
ENCODING 113
SWIDTH 473 0
DWIDTH 9 0
BBX 6 14 1 -4
BITMAP
7C
84
84
84
84
84
84
84
84
7C
04
04
04
04
ENDCHAR
STARTCHAR 0072
ENCODING 114
SWIDTH 263 0
DWIDTH 5 0
BBX 4 10 1 0
BITMAP
B0
C0
80
80
80
80
80
80
80
80
ENDCHAR
STARTCHAR 0073
ENCODING 115
SWIDTH 368 0
DWIDTH 7 0
BBX 5 10 1 0
BITMAP
F8
80
80
80
60
18
08
08
08
F0
ENDCHAR
STARTCHAR 0074
ENCODING 116
SWIDTH 315 0
DWIDTH 6 0
BBX 6 14 0 0
BITMAP
20
20
20
20
F8
20
20
20
20
20
20
20
20
1C
ENDCHAR
STARTCHAR 0075
ENCODING 117
SWIDTH 473 0
DWIDTH 9 0
BBX 6 10 1 0
BITMAP
84
84
84
84
84
84
84
84
84
7C
ENDCHAR
STARTCHAR 0076
ENCODING 118
SWIDTH 421 0
DWIDTH 8 0
BBX 8 10 0 0
BITMAP
81
41
42
42
22
24
24
14
18
18
ENDCHAR
STARTCHAR 0077
ENCODING 119
SWIDTH 736 0
DWIDTH 14 0
BBX 13 10 0 0
BITMAP
C308
4308
4508
4490
2490
2490
2890
2860
1860
1060
ENDCHAR
STARTCHAR 0078
ENCODING 120
SWIDTH 368 0
DWIDTH 7 0
BBX 7 10 0 0
BITMAP
C2
44
24
28
10
18
28
24
42
82
ENDCHAR
STARTCHAR 0079
ENCODING 121
SWIDTH 421 0
DWIDTH 8 0
BBX 8 14 0 -4
BITMAP
81
41
42
42
22
24
24
14
18
18
08
10
10
20
ENDCHAR
STARTCHAR 007A
ENCODING 122
SWIDTH 368 0
DWIDTH 7 0
BBX 6 10 1 0
BITMAP
F8
08
10
10
20
20
40
40
80
FC
ENDCHAR
STARTCHAR 007B
ENCODING 123
SWIDTH 315 0
DWIDTH 6 0
BBX 6 20 0 -4
BITMAP
0C
30
20
20
20
20
20
20
20
40
C0
20
20
20
20
20
20
20
20
1C
ENDCHAR
STARTCHAR 007C
ENCODING 124
SWIDTH 210 0
DWIDTH 4 0
BBX 1 19 1 -4
BITMAP
80
80
80
80
80
80
80
80
80
80
80
80
80
80
80
80
80
80
80
ENDCHAR
STARTCHAR 007D
ENCODING 125
SWIDTH 315 0
DWIDTH 6 0
BBX 5 20 0 -4
BITMAP
C0
20
10
10
10
10
10
10
10
10
18
10
10
10
10
10
10
10
10
E0
ENDCHAR
STARTCHAR 007E
ENCODING 126
SWIDTH 526 0
DWIDTH 10 0
BBX 7 2 1 6
BITMAP
72
8C
ENDCHAR
STARTCHAR 00A0
ENCODING 160
SWIDTH 210 0
DWIDTH 4 0
BBX 0 0 0 0
BITMAP
ENDCHAR
STARTCHAR 00A1
ENCODING 161
SWIDTH 210 0
DWIDTH 4 0
BBX 1 14 1 -4
BITMAP
80
00
00
80
80
80
80
80
80
80
80
80
80
80
ENDCHAR
STARTCHAR 00A2
ENCODING 162
SWIDTH 368 0
DWIDTH 7 0
BBX 6 15 1 -2
BITMAP
10
10
18
64
80
80
80
80
80
80
80
80
6C
10
10
ENDCHAR
STARTCHAR 00A3
ENCODING 163
SWIDTH 526 0
DWIDTH 10 0
BBX 8 14 1 0
BITMAP
1F
20
20
20
20
20
FE
20
20
20
20
20
20
FF
ENDCHAR
STARTCHAR 00A4
ENCODING 164
SWIDTH 526 0
DWIDTH 10 0
BBX 8 8 1 3
BITMAP
81
7E
42
42
42
42
7E
81
ENDCHAR
STARTCHAR 00A5
ENCODING 165
SWIDTH 526 0
DWIDTH 10 0
BBX 10 14 0 0
BITMAP
8040
4080
4100
2100
1200
1200
0C00
3F00
0800
0800
3F00
0800
0800
0800
ENDCHAR
STARTCHAR 00A6
ENCODING 166
SWIDTH 210 0
DWIDTH 4 0
BBX 1 19 1 -4
BITMAP
80
80
80
80
80
80
80
00
00
00
00
00
80
80
80
80
80
80
80
ENDCHAR
STARTCHAR 00A7
ENCODING 167
SWIDTH 421 0
DWIDTH 8 0
BBX 6 14 1 0
BITMAP
78
80
80
80
60
98
84
84
64
18
04
04
08
F8
ENDCHAR
STARTCHAR 00A8
ENCODING 168
SWIDTH 421 0
DWIDTH 8 0
BBX 4 1 4 13
BITMAP
90
ENDCHAR
STARTCHAR 00A9
ENCODING 169
SWIDTH 842 0
DWIDTH 16 0
BBX 14 14 1 0
BITMAP
1FE0
2010
4008
4788
8804
8804
8804
8804
8804
8804
4788
4008
2010
1FE0
ENDCHAR
STARTCHAR 00AA
ENCODING 170
SWIDTH 368 0
DWIDTH 7 0
BBX 5 8 1 6
BITMAP
F0
08
08
18
E8
88
88
F8
ENDCHAR
STARTCHAR 00AB
ENCODING 171
SWIDTH 368 0
DWIDTH 7 0
BBX 5 8 1 1
BITMAP
48
50
90
90
90
50
48
28
ENDCHAR
STARTCHAR 00AC
ENCODING 172
SWIDTH 631 0
DWIDTH 12 0
BBX 10 6 1 2
BITMAP
FFC0
0040
0040
0040
0040
0040
ENDCHAR
STARTCHAR 00AD
ENCODING 173
SWIDTH 315 0
DWIDTH 6 0
BBX 4 1 1 5
BITMAP
F0
ENDCHAR
STARTCHAR 00AE
ENCODING 174
SWIDTH 736 0
DWIDTH 14 0
BBX 12 11 1 3
BITMAP
1F80
2040
4420
8B10
8910
8D10
8A10
8910
4020
6020
1FC0
ENDCHAR
STARTCHAR 00AF
ENCODING 175
SWIDTH 421 0
DWIDTH 8 0
BBX 5 1 3 13
BITMAP
F8
ENDCHAR
STARTCHAR 00B0
ENCODING 176
SWIDTH 473 0
DWIDTH 9 0
BBX 6 6 1 8
BITMAP
78
84
84
84
44
38
ENDCHAR
STARTCHAR 00B1
ENCODING 177
SWIDTH 526 0
DWIDTH 10 0
BBX 7 10 1 0
BITMAP
10
10
10
FE
10
10
10
00
00
FE
ENDCHAR
STARTCHAR 00B2
ENCODING 178
SWIDTH 315 0
DWIDTH 6 0
BBX 4 9 1 6
BITMAP
F0
10
10
10
20
20
40
40
F0
ENDCHAR
STARTCHAR 00B3
ENCODING 179
SWIDTH 315 0
DWIDTH 6 0
BBX 5 9 1 6
BITMAP
F0
08
10
10
70
08
08
08
F0
ENDCHAR
STARTCHAR 00B4
ENCODING 180
SWIDTH 421 0
DWIDTH 8 0
BBX 3 3 5 12
BITMAP
60
40
80
ENDCHAR
STARTCHAR 00B5
ENCODING 181
SWIDTH 473 0
DWIDTH 9 0
BBX 6 14 1 -4
BITMAP
84
84
84
84
84
84
84
84
84
FC
80
80
80
80
ENDCHAR
STARTCHAR 00B6
ENCODING 182
SWIDTH 526 0
DWIDTH 10 0
BBX 7 14 1 0
BITMAP
7E
FE
FE
FE
FE
FE
FE
7E
3E
06
06
06
06
06
ENDCHAR
STARTCHAR 00B7
ENCODING 183
SWIDTH 157 0
DWIDTH 3 0
BBX 1 1 1 5
BITMAP
80
ENDCHAR
STARTCHAR 00B8
ENCODING 184
SWIDTH 421 0
DWIDTH 8 0
BBX 3 4 4 -4
BITMAP
40
20
20
E0
ENDCHAR
STARTCHAR 00B9
ENCODING 185
SWIDTH 315 0
DWIDTH 6 0
BBX 5 9 1 6
BITMAP
60
A0
20
20
20
20
20
20
F8
ENDCHAR
STARTCHAR 00BA
ENCODING 186
SWIDTH 368 0
DWIDTH 7 0
BBX 6 8 1 6
BITMAP
78
88
84
84
84
84
88
78
ENDCHAR
STARTCHAR 00BB
ENCODING 187
SWIDTH 368 0
DWIDTH 7 0
BBX 5 8 1 1
BITMAP
A0
90
50
48
50
90
90
A0
ENDCHAR
STARTCHAR 00BC
ENCODING 188
SWIDTH 789 0
DWIDTH 15 0
BBX 13 16 1 -1
BITMAP
6040
A080
2080
2080
2100
2100
2200
2220
FA20
0440
0450
0890
0890
08F8
1010
1010
ENDCHAR
STARTCHAR 00BD
ENCODING 189
SWIDTH 789 0
DWIDTH 15 0
BBX 13 16 1 -1
BITMAP
6040
A080
2080
2080
2100
2100
2240
22B0
FA10
0410
0410
0810
0820
0840
1040
10F8
ENDCHAR
STARTCHAR 00BE
ENCODING 190
SWIDTH 789 0
DWIDTH 15 0
BBX 13 16 1 -1
BITMAP
F040
0880
1080
1080
7100
0900
0A00
0A20
F220
0440
0450
0890
0890
08F8
1010
1010
ENDCHAR
STARTCHAR 00BF
ENCODING 191
SWIDTH 368 0
DWIDTH 7 0
BBX 6 14 1 -4
BITMAP
30
00
00
10
10
10
20
40
80
80
80
80
80
7C
ENDCHAR
STARTCHAR 00C0
ENCODING 192
SWIDTH 578 0
DWIDTH 11 0
BBX 10 18 0 0
BITMAP
0800
0800
0400
0000
0400
0C00
0A00
0A00
1200
1100
1100
2100
3F80
2080
4080
4040
4040
8040
ENDCHAR
STARTCHAR 00C1
ENCODING 193
SWIDTH 578 0
DWIDTH 11 0
BBX 10 18 0 0
BITMAP
0200
0400
0400
0000
0400
0C00
0A00
0A00
1200
1100
1100
2100
3F80
2080
4080
4040
4040
8040
ENDCHAR
STARTCHAR 00C2
ENCODING 194
SWIDTH 578 0
DWIDTH 11 0
BBX 10 18 0 0
BITMAP
0400
0A00
1100
0000
0400
0C00
0A00
0A00
1200
1100
1100
2100
3F80
2080
4080
4040
4040
8040
ENDCHAR
STARTCHAR 00C3
ENCODING 195
SWIDTH 578 0
DWIDTH 11 0
BBX 10 17 0 0
BITMAP
1F00
0000
0000
0400
0C00
0A00
0A00
1200
1100
1100
2100
3F80
2080
4080
4040
4040
8040
ENDCHAR
STARTCHAR 00C4
ENCODING 196
SWIDTH 578 0
DWIDTH 11 0
BBX 10 17 0 0
BITMAP
1300
0000
0000
0400
0C00
0A00
0A00
1200
1100
1100
2100
3F80
2080
4080
4040
4040
8040
ENDCHAR
STARTCHAR 00C5
ENCODING 197
SWIDTH 578 0
DWIDTH 11 0
BBX 10 19 0 0
BITMAP
0C00
1200
1200
0C00
0000
0400
0C00
0A00
0A00
1200
1100
1100
2100
3F80
2080
4080
4040
4040
8040
ENDCHAR
STARTCHAR 00C6
ENCODING 198
SWIDTH 789 0
DWIDTH 15 0
BBX 14 14 0 0
BITMAP
07FC
0900
0900
0900
1100
1100
11F8
2100
3F00
2100
4100
4100
4080
80FC
ENDCHAR
STARTCHAR 00C7
ENCODING 199
SWIDTH 473 0
DWIDTH 9 0
BBX 8 18 1 -4
BITMAP
3F
40
80
80
80
80
80
80
80
80
80
40
40
37
08
04
02
1C
ENDCHAR
STARTCHAR 00C8
ENCODING 200
SWIDTH 473 0
DWIDTH 9 0
BBX 7 18 2 0
BITMAP
20
20
10
00
FE
80
80
80
80
80
FC
80
80
80
80
80
80
FE
ENDCHAR
STARTCHAR 00C9
ENCODING 201
SWIDTH 473 0
DWIDTH 9 0
BBX 7 18 2 0
BITMAP
08
10
10
00
FE
80
80
80
80
80
FC
80
80
80
80
80
80
FE
ENDCHAR
STARTCHAR 00CA
ENCODING 202
SWIDTH 473 0
DWIDTH 9 0
BBX 7 18 2 0
BITMAP
10
28
44
00
FE
80
80
80
80
80
FC
80
80
80
80
80
80
FE
ENDCHAR
STARTCHAR 00CB
ENCODING 203
SWIDTH 473 0
DWIDTH 9 0
BBX 7 17 2 0
BITMAP
4C
00
00
FE
80
80
80
80
80
FC
80
80
80
80
80
80
FE
ENDCHAR
STARTCHAR 00CC
ENCODING 204
SWIDTH 210 0
DWIDTH 4 0
BBX 2 18 0 0
BITMAP
80
40
40
00
40
40
40
40
40
40
40
40
40
40
40
40
40
40
ENDCHAR
STARTCHAR 00CD
ENCODING 205
SWIDTH 210 0
DWIDTH 4 0
BBX 2 18 2 0
BITMAP
C0
80
80
00
80
80
80
80
80
80
80
80
80
80
80
80
80
80
ENDCHAR
STARTCHAR 00CE
ENCODING 206
SWIDTH 210 0
DWIDTH 4 0
BBX 4 18 0 0
BITMAP
60
A0
90
00
40
40
40
40
40
40
40
40
40
40
40
40
40
40
ENDCHAR
STARTCHAR 00CF
ENCODING 207
SWIDTH 210 0
DWIDTH 4 0
BBX 4 17 0 0
BITMAP
90
00
00
40
40
40
40
40
40
40
40
40
40
40
40
40
40
ENDCHAR
STARTCHAR 00D0
ENCODING 208
SWIDTH 578 0
DWIDTH 11 0
BBX 10 14 0 0
BITMAP
3E00
4180
4080
4040
4040
4040
F840
4040
4040
4040
4040
4080
4100
3E00
ENDCHAR
STARTCHAR 00D1
ENCODING 209
SWIDTH 631 0
DWIDTH 12 0
BBX 8 17 2 0
BITMAP
7C
00
00
81
81
C1
C1
A1
91
91
89
89
85
85
83
81
81
ENDCHAR
STARTCHAR 00D2
ENCODING 210
SWIDTH 578 0
DWIDTH 11 0
BBX 9 18 1 0
BITMAP
1000
1000
0800
0000
3E00
4100
8080
8080
8080
8080
8080
8080
8080
8080
8080
8080
4100
3E00
ENDCHAR
STARTCHAR 00D3
ENCODING 211
SWIDTH 578 0
DWIDTH 11 0
BBX 9 18 1 0
BITMAP
0400
0400
0800
0000
3E00
4100
8080
8080
8080
8080
8080
8080
8080
8080
8080
8080
4100
3E00
ENDCHAR
STARTCHAR 00D4
ENCODING 212
SWIDTH 578 0
DWIDTH 11 0
BBX 9 18 1 0
BITMAP
0800
1400
2200
0000
3E00
4100
8080
8080
8080
8080
8080
8080
8080
8080
8080
8080
4100
3E00
ENDCHAR
STARTCHAR 00D5
ENCODING 213
SWIDTH 578 0
DWIDTH 11 0
BBX 9 17 1 0
BITMAP
3E00
0000
0000
3E00
4100
8080
8080
8080
8080
8080
8080
8080
8080
8080
8080
4100
3E00
ENDCHAR
STARTCHAR 00D6
ENCODING 214
SWIDTH 578 0
DWIDTH 11 0
BBX 9 17 1 0
BITMAP
2200
0000
0000
3E00
4100
8080
8080
8080
8080
8080
8080
8080
8080
8080
8080
4100
3E00
ENDCHAR
STARTCHAR 00D7
ENCODING 215
SWIDTH 473 0
DWIDTH 9 0
BBX 7 7 1 4
BITMAP
82
44
28
10
28
44
82
ENDCHAR
STARTCHAR 00D8
ENCODING 216
SWIDTH 578 0
DWIDTH 11 0
BBX 9 14 1 0
BITMAP
3E80
4100
8100
8280
8280
8480
8880
8880
9080
A080
A080
4080
4100
BE00
ENDCHAR
STARTCHAR 00D9
ENCODING 217
SWIDTH 578 0
DWIDTH 11 0
BBX 9 18 1 0
BITMAP
1000
0800
0800
0000
8080
8080
8080
8080
8080
8080
8080
8080
8080
8080
8080
4080
4100
3E00
ENDCHAR
STARTCHAR 00DA
ENCODING 218
SWIDTH 578 0
DWIDTH 11 0
BBX 9 18 1 0
BITMAP
0400
0400
0800
0000
8080
8080
8080
8080
8080
8080
8080
8080
8080
8080
8080
4080
4100
3E00
ENDCHAR
STARTCHAR 00DB
ENCODING 219
SWIDTH 578 0
DWIDTH 11 0
BBX 9 18 1 0
BITMAP
0800
1400
2200
0000
8080
8080
8080
8080
8080
8080
8080
8080
8080
8080
8080
4080
4100
3E00
ENDCHAR
STARTCHAR 00DC
ENCODING 220
SWIDTH 578 0
DWIDTH 11 0
BBX 9 17 1 0
BITMAP
3200
0000
0000
8080
8080
8080
8080
8080
8080
8080
8080
8080
8080
8080
4080
4100
3E00
ENDCHAR
STARTCHAR 00DD
ENCODING 221
SWIDTH 473 0
DWIDTH 9 0
BBX 9 18 0 0
BITMAP
0400
0400
0800
0000
8080
4080
4100
2200
2200
1400
0C00
0800
0800
0800
0800
0800
0800
0800
ENDCHAR
STARTCHAR 00DE
ENCODING 222
SWIDTH 526 0
DWIDTH 10 0
BBX 7 14 2 0
BITMAP
80
80
F8
84
82
82
82
82
82
82
9C
E0
80
80
ENDCHAR
STARTCHAR 00DF
ENCODING 223
SWIDTH 578 0
DWIDTH 11 0
BBX 10 16 0 0
BITMAP
0E00
1100
2080
2080
2080
2180
E600
2400
2800
2400
2300
2080
2040
2040
2040
2780
ENDCHAR
STARTCHAR 00E0
ENCODING 224
SWIDTH 421 0
DWIDTH 8 0
BBX 6 15 1 0
BITMAP
40
20
20
00
30
C8
04
04
04
3C
C4
84
84
84
7C
ENDCHAR
STARTCHAR 00E1
ENCODING 225
SWIDTH 421 0
DWIDTH 8 0
BBX 6 15 1 0
BITMAP
08
10
10
00
30
C8
04
04
04
3C
C4
84
84
84
7C
ENDCHAR
STARTCHAR 00E2
ENCODING 226
SWIDTH 421 0
DWIDTH 8 0
BBX 6 15 1 0
BITMAP
30
50
48
00
30
C8
04
04
04
3C
C4
84
84
84
7C
ENDCHAR
STARTCHAR 00E3
ENCODING 227
SWIDTH 421 0
DWIDTH 8 0
BBX 6 14 1 0
BITMAP
F8
00
00
30
C8
04
04
04
3C
C4
84
84
84
7C
ENDCHAR
STARTCHAR 00E4
ENCODING 228
SWIDTH 421 0
DWIDTH 8 0
BBX 6 14 1 0
BITMAP
48
00
00
30
C8
04
04
04
3C
C4
84
84
84
7C
ENDCHAR
STARTCHAR 00E5
ENCODING 229
SWIDTH 421 0
DWIDTH 8 0
BBX 6 15 1 0
BITMAP
78
48
30
00
30
C8
04
04
04
3C
C4
84
84
84
7C
ENDCHAR
STARTCHAR 00E6
ENCODING 230
SWIDTH 684 0
DWIDTH 13 0
BBX 12 10 1 0
BITMAP
FBE0
0420
0410
0410
3FF0
C400
8400
8400
8600
79E0
ENDCHAR
STARTCHAR 00E7
ENCODING 231
SWIDTH 368 0
DWIDTH 7 0
BBX 6 14 1 -4
BITMAP
7C
80
80
80
80
80
80
80
80
6C
10
10
08
30
ENDCHAR
STARTCHAR 00E8
ENCODING 232
SWIDTH 421 0
DWIDTH 8 0
BBX 6 15 1 0
BITMAP
60
20
20
00
30
48
84
84
84
FC
80
80
80
80
7C
ENDCHAR
STARTCHAR 00E9
ENCODING 233
SWIDTH 421 0
DWIDTH 8 0
BBX 6 15 1 0
BITMAP
08
10
10
00
30
48
84
84
84
FC
80
80
80
80
7C
ENDCHAR
STARTCHAR 00EA
ENCODING 234
SWIDTH 421 0
DWIDTH 8 0
BBX 6 15 1 0
BITMAP
30
28
48
00
30
48
84
84
84
FC
80
80
80
80
7C
ENDCHAR
STARTCHAR 00EB
ENCODING 235
SWIDTH 421 0
DWIDTH 8 0
BBX 6 14 1 0
BITMAP
48
00
00
30
48
84
84
84
FC
80
80
80
80
7C
ENDCHAR
STARTCHAR 00EC
ENCODING 236
SWIDTH 157 0
DWIDTH 3 0
BBX 2 15 0 0
BITMAP
80
40
40
00
00
40
40
40
40
40
40
40
40
40
40
ENDCHAR
STARTCHAR 00ED
ENCODING 237
SWIDTH 157 0
DWIDTH 3 0
BBX 3 15 1 0
BITMAP
60
40
80
00
00
80
80
80
80
80
80
80
80
80
80
ENDCHAR
STARTCHAR 00EE
ENCODING 238
SWIDTH 157 0
DWIDTH 3 0
BBX 4 15 0 0
BITMAP
40
A0
90
00
00
40
40
40
40
40
40
40
40
40
40
ENDCHAR
STARTCHAR 00EF
ENCODING 239
SWIDTH 157 0
DWIDTH 3 0
BBX 4 14 0 0
BITMAP
90
00
00
00
40
40
40
40
40
40
40
40
40
40
ENDCHAR
STARTCHAR 00F0
ENCODING 240
SWIDTH 473 0
DWIDTH 9 0
BBX 7 15 1 0
BITMAP
30
16
78
04
14
6C
84
82
82
82
82
82
82
84
78
ENDCHAR
STARTCHAR 00F1
ENCODING 241
SWIDTH 473 0
DWIDTH 9 0
BBX 7 14 1 0
BITMAP
7C
00
00
18
E4
82
82
82
82
82
82
82
82
82
ENDCHAR
STARTCHAR 00F2
ENCODING 242
SWIDTH 473 0
DWIDTH 9 0
BBX 7 15 1 0
BITMAP
60
20
10
00
10
6C
84
82
82
82
82
82
82
84
78
ENDCHAR
STARTCHAR 00F3
ENCODING 243
SWIDTH 473 0
DWIDTH 9 0
BBX 7 15 1 0
BITMAP
08
10
10
00
10
6C
84
82
82
82
82
82
82
84
78
ENDCHAR
STARTCHAR 00F4
ENCODING 244
SWIDTH 473 0
DWIDTH 9 0
BBX 7 15 1 0
BITMAP
30
28
48
00
10
6C
84
82
82
82
82
82
82
84
78
ENDCHAR
STARTCHAR 00F5
ENCODING 245
SWIDTH 473 0
DWIDTH 9 0
BBX 7 14 1 0
BITMAP
7C
00
00
10
6C
84
82
82
82
82
82
82
84
78
ENDCHAR
STARTCHAR 00F6
ENCODING 246
SWIDTH 473 0
DWIDTH 9 0
BBX 7 14 1 0
BITMAP
48
00
00
10
6C
84
82
82
82
82
82
82
84
78
ENDCHAR
STARTCHAR 00F7
ENCODING 247
SWIDTH 526 0
DWIDTH 10 0
BBX 7 8 1 3
BITMAP
10
00
00
FE
00
00
10
10
ENDCHAR
STARTCHAR 00F8
ENCODING 248
SWIDTH 473 0
DWIDTH 9 0
BBX 7 10 1 0
BITMAP
7E
84
8A
8A
92
A2
A2
C2
84
F8
ENDCHAR
STARTCHAR 00F9
ENCODING 249
SWIDTH 473 0
DWIDTH 9 0
BBX 6 15 1 0
BITMAP
60
20
10
00
00
84
84
84
84
84
84
84
84
84
7C
ENDCHAR
STARTCHAR 00FA
ENCODING 250
SWIDTH 473 0
DWIDTH 9 0
BBX 6 15 1 0
BITMAP
08
10
10
00
00
84
84
84
84
84
84
84
84
84
7C
ENDCHAR
STARTCHAR 00FB
ENCODING 251
SWIDTH 473 0
DWIDTH 9 0
BBX 6 15 1 0
BITMAP
30
28
48
00
00
84
84
84
84
84
84
84
84
84
7C
ENDCHAR
STARTCHAR 00FC
ENCODING 252
SWIDTH 473 0
DWIDTH 9 0
BBX 6 14 1 0
BITMAP
48
00
00
00
84
84
84
84
84
84
84
84
84
7C
ENDCHAR
STARTCHAR 00FD
ENCODING 253
SWIDTH 421 0
DWIDTH 8 0
BBX 8 19 0 -4
BITMAP
04
08
08
00
00
81
41
42
42
22
24
24
14
18
18
08
10
10
20
ENDCHAR
STARTCHAR 00FE
ENCODING 254
SWIDTH 473 0
DWIDTH 9 0
BBX 7 19 1 -4
BITMAP
80
80
80
80
90
EC
84
82
82
82
82
82
82
84
F8
80
80
80
80
ENDCHAR
STARTCHAR 00FF
ENCODING 255
SWIDTH 421 0
DWIDTH 8 0
BBX 8 18 0 -4
BITMAP
24
00
00
00
81
41
42
42
22
24
24
14
18
18
08
10
10
20
ENDCHAR
STARTCHAR 0100
ENCODING 256
SWIDTH 578 0
DWIDTH 11 0
BBX 10 17 0 0
BITMAP
1F00
0000
0000
0400
0C00
0A00
0A00
1200
1100
1100
2100
3F80
2080
4080
4040
4040
8040
ENDCHAR
STARTCHAR 0101
ENCODING 257
SWIDTH 421 0
DWIDTH 8 0
BBX 6 14 1 0
BITMAP
78
00
00
30
C8
04
04
04
3C
C4
84
84
84
7C
ENDCHAR
STARTCHAR 0102
ENCODING 258
SWIDTH 578 0
DWIDTH 11 0
BBX 10 18 0 0
BITMAP
1100
1100
0E00
0000
0400
0C00
0A00
0A00
1200
1100
1100
2100
3F80
2080
4080
4040
4040
8040
ENDCHAR
STARTCHAR 0103
ENCODING 259
SWIDTH 421 0
DWIDTH 8 0
BBX 6 15 1 0
BITMAP
48
48
30
00
30
C8
04
04
04
3C
C4
84
84
84
7C
ENDCHAR
STARTCHAR 0104
ENCODING 260
SWIDTH 578 0
DWIDTH 11 0
BBX 12 18 0 -4
BITMAP
0400
0C00
0A00
0A00
1200
1100
1100
2100
3F80
2080
4080
4040
4040
8040
0040
0080
0080
0070
ENDCHAR
STARTCHAR 0105
ENCODING 261
SWIDTH 421 0
DWIDTH 8 0
BBX 7 14 1 -4
BITMAP
F8
04
04
04
3C
C4
84
84
84
7C
08
08
08
0E
ENDCHAR
STARTCHAR 0106
ENCODING 262
SWIDTH 473 0
DWIDTH 9 0
BBX 8 18 1 0
BITMAP
04
04
08
00
3F
40
80
80
80
80
80
80
80
80
80
40
40
3F
ENDCHAR
STARTCHAR 0107
ENCODING 263
SWIDTH 368 0
DWIDTH 7 0
BBX 6 15 1 0
BITMAP
08
10
10
00
18
64
80
80
80
80
80
80
80
80
7C
ENDCHAR
STARTCHAR 0108
ENCODING 264
SWIDTH 473 0
DWIDTH 9 0
BBX 8 18 1 0
BITMAP
08
14
22
00
3F
40
80
80
80
80
80
80
80
80
80
40
40
3F
ENDCHAR
STARTCHAR 0109
ENCODING 265
SWIDTH 368 0
DWIDTH 7 0
BBX 6 15 1 0
BITMAP
30
28
48
00
18
64
80
80
80
80
80
80
80
80
7C
ENDCHAR
STARTCHAR 010A
ENCODING 266
SWIDTH 473 0
DWIDTH 9 0
BBX 8 17 1 0
BITMAP
08
00
00
3F
40
80
80
80
80
80
80
80
80
80
40
40
3F
ENDCHAR
STARTCHAR 010B
ENCODING 267
SWIDTH 368 0
DWIDTH 7 0
BBX 6 14 1 0
BITMAP
30
00
00
18
64
80
80
80
80
80
80
80
80
7C
ENDCHAR
STARTCHAR 010C
ENCODING 268
SWIDTH 473 0
DWIDTH 9 0
BBX 8 18 1 0
BITMAP
32
14
08
00
3F
40
80
80
80
80
80
80
80
80
80
40
40
3F
ENDCHAR
STARTCHAR 010D
ENCODING 269
SWIDTH 368 0
DWIDTH 7 0
BBX 6 15 1 0
BITMAP
48
30
30
00
18
64
80
80
80
80
80
80
80
80
7C
ENDCHAR
STARTCHAR 010E
ENCODING 270
SWIDTH 578 0
DWIDTH 11 0
BBX 8 18 2 0
BITMAP
48
30
20
00
F8
86
82
81
81
81
81
81
81
81
81
82
84
F8
ENDCHAR
STARTCHAR 010F
ENCODING 271
SWIDTH 473 0
DWIDTH 9 0
BBX 8 15 1 0
BITMAP
05
05
05
05
1C
64
84
84
84
84
84
84
84
84
7A
ENDCHAR
STARTCHAR 0110
ENCODING 272
SWIDTH 578 0
DWIDTH 11 0
BBX 10 14 0 0
BITMAP
3E00
4180
4080
4040
4040
4040
F840
4040
4040
4040
4040
4080
4100
3E00
ENDCHAR
STARTCHAR 0111
ENCODING 273
SWIDTH 473 0
DWIDTH 9 0
BBX 8 15 1 0
BITMAP
04
04
1F
04
1C
64
84
84
84
84
84
84
84
84
7A
ENDCHAR
STARTCHAR 0112
ENCODING 274
SWIDTH 473 0
DWIDTH 9 0
BBX 7 17 2 0
BITMAP
7C
00
00
FE
80
80
80
80
80
FC
80
80
80
80
80
80
FE
ENDCHAR
STARTCHAR 0113
ENCODING 275
SWIDTH 421 0
DWIDTH 8 0
BBX 6 14 1 0
BITMAP
7C
00
00
30
48
84
84
84
FC
80
80
80
80
7C
ENDCHAR
STARTCHAR 0114
ENCODING 276
SWIDTH 473 0
DWIDTH 9 0
BBX 7 18 2 0
BITMAP
44
48
30
00
FE
80
80
80
80
80
FC
80
80
80
80
80
80
FE
ENDCHAR
STARTCHAR 0115
ENCODING 277
SWIDTH 421 0
DWIDTH 8 0
BBX 6 15 1 0
BITMAP
48
48
30
00
30
48
84
84
84
FC
80
80
80
80
7C
ENDCHAR
STARTCHAR 0116
ENCODING 278
SWIDTH 473 0
DWIDTH 9 0
BBX 7 17 2 0
BITMAP
10
00
00
FE
80
80
80
80
80
FC
80
80
80
80
80
80
FE
ENDCHAR
STARTCHAR 0117
ENCODING 279
SWIDTH 421 0
DWIDTH 8 0
BBX 6 14 1 0
BITMAP
10
00
00
30
48
84
84
84
FC
80
80
80
80
7C
ENDCHAR
STARTCHAR 0118
ENCODING 280
SWIDTH 473 0
DWIDTH 9 0
BBX 8 18 2 -4
BITMAP
FE
80
80
80
80
80
FC
80
80
80
80
80
80
FE
04
08
08
07
ENDCHAR
STARTCHAR 0119
ENCODING 281
SWIDTH 421 0
DWIDTH 8 0
BBX 6 14 1 -4
BITMAP
78
84
84
84
FC
80
80
80
80
7C
08
10
10
0C
ENDCHAR
STARTCHAR 011A
ENCODING 282
SWIDTH 473 0
DWIDTH 9 0
BBX 7 18 2 0
BITMAP
4C
28
10
00
FE
80
80
80
80
80
FC
80
80
80
80
80
80
FE
ENDCHAR
STARTCHAR 011B
ENCODING 283
SWIDTH 421 0
DWIDTH 8 0
BBX 6 15 1 0
BITMAP
48
30
10
00
30
48
84
84
84
FC
80
80
80
80
7C
ENDCHAR
STARTCHAR 011C
ENCODING 284
SWIDTH 578 0
DWIDTH 11 0
BBX 8 18 1 0
BITMAP
0C
14
12
00
3F
40
40
80
80
80
80
81
81
81
81
41
61
1F
ENDCHAR
STARTCHAR 011D
ENCODING 285
SWIDTH 473 0
DWIDTH 9 0
BBX 6 19 1 -4
BITMAP
10
28
64
00
18
64
84
84
84
84
84
84
84
84
7C
04
04
04
F8
ENDCHAR
STARTCHAR 011E
ENCODING 286
SWIDTH 578 0
DWIDTH 11 0
BBX 8 18 1 0
BITMAP
22
12
0C
00
3F
40
40
80
80
80
80
81
81
81
81
41
61
1F
ENDCHAR
STARTCHAR 011F
ENCODING 287
SWIDTH 473 0
DWIDTH 9 0
BBX 6 19 1 -4
BITMAP
44
44
38
00
18
64
84
84
84
84
84
84
84
84
7C
04
04
04
F8
ENDCHAR
STARTCHAR 0120
ENCODING 288
SWIDTH 578 0
DWIDTH 11 0
BBX 8 17 1 0
BITMAP
08
00
00
3F
40
40
80
80
80
80
81
81
81
81
41
61
1F
ENDCHAR
STARTCHAR 0121
ENCODING 289
SWIDTH 473 0
DWIDTH 9 0
BBX 6 18 1 -4
BITMAP
10
00
00
18
64
84
84
84
84
84
84
84
84
7C
04
04
04
F8
ENDCHAR
STARTCHAR 0122
ENCODING 290
SWIDTH 578 0
DWIDTH 11 0
BBX 8 18 1 -4
BITMAP
3F
40
40
80
80
80
80
81
81
81
81
41
61
1F
00
00
08
04
ENDCHAR
STARTCHAR 0123
ENCODING 291
SWIDTH 473 0
DWIDTH 9 0
BBX 6 19 1 -4
BITMAP
10
10
00
00
18
64
84
84
84
84
84
84
84
84
7C
04
04
04
F8
ENDCHAR
STARTCHAR 0124
ENCODING 292
SWIDTH 631 0
DWIDTH 12 0
BBX 8 18 2 0
BITMAP
10
28
44
00
81
81
81
81
81
81
FF
81
81
81
81
81
81
81
ENDCHAR
STARTCHAR 0125
ENCODING 293
SWIDTH 473 0
DWIDTH 9 0
BBX 7 19 1 0
BITMAP
10
28
44
00
80
80
80
80
98
E4
82
82
82
82
82
82
82
82
82
ENDCHAR
STARTCHAR 0126
ENCODING 294
SWIDTH 631 0
DWIDTH 12 0
BBX 12 14 0 0
BITMAP
4040
4040
4040
FFF0
4040
4040
3FC0
4040
4040
4040
4040
4040
4040
4040
ENDCHAR
STARTCHAR 0127
ENCODING 295
SWIDTH 473 0
DWIDTH 9 0
BBX 8 15 0 0
BITMAP
40
40
F8
40
4C
72
41
41
41
41
41
41
41
41
41
ENDCHAR
STARTCHAR 0128
ENCODING 296
SWIDTH 210 0
DWIDTH 4 0
BBX 5 17 -1 0
BITMAP
F8
00
00
20
20
20
20
20
20
20
20
20
20
20
20
20
20
ENDCHAR
STARTCHAR 0129
ENCODING 297
SWIDTH 157 0
DWIDTH 3 0
BBX 5 14 -1 0
BITMAP
F8
00
00
00
20
20
20
20
20
20
20
20
20
20
ENDCHAR
STARTCHAR 012A
ENCODING 298
SWIDTH 210 0
DWIDTH 4 0
BBX 4 17 0 0
BITMAP
F0
00
00
40
40
40
40
40
40
40
40
40
40
40
40
40
40
ENDCHAR
STARTCHAR 012B
ENCODING 299
SWIDTH 157 0
DWIDTH 3 0
BBX 5 14 -1 0
BITMAP
F8
00
00
00
20
20
20
20
20
20
20
20
20
20
ENDCHAR
STARTCHAR 012C
ENCODING 300
SWIDTH 210 0
DWIDTH 4 0
BBX 4 18 0 0
BITMAP
90
90
60
00
40
40
40
40
40
40
40
40
40
40
40
40
40
40
ENDCHAR
STARTCHAR 012D
ENCODING 301
SWIDTH 157 0
DWIDTH 3 0
BBX 4 15 0 0
BITMAP
90
90
60
00
00
40
40
40
40
40
40
40
40
40
40
ENDCHAR
STARTCHAR 012E
ENCODING 302
SWIDTH 210 0
DWIDTH 4 0
BBX 3 18 0 -4
BITMAP
40
40
40
40
40
40
40
40
40
40
40
40
40
40
40
80
80
60
ENDCHAR
STARTCHAR 012F
ENCODING 303
SWIDTH 157 0
DWIDTH 3 0
BBX 3 18 0 -4
BITMAP
40
00
00
00
40
40
40
40
40
40
40
40
40
40
40
80
80
60
ENDCHAR
STARTCHAR 0130
ENCODING 304
SWIDTH 210 0
DWIDTH 4 0
BBX 1 17 1 0
BITMAP
80
00
00
80
80
80
80
80
80
80
80
80
80
80
80
80
80
ENDCHAR
STARTCHAR 0131
ENCODING 305
SWIDTH 157 0
DWIDTH 3 0
BBX 1 10 1 0
BITMAP
80
80
80
80
80
80
80
80
80
80
ENDCHAR
STARTCHAR 0134
ENCODING 308
SWIDTH 210 0
DWIDTH 4 0
BBX 4 21 0 -3
BITMAP
60
A0
90
00
40
40
40
40
40
40
40
40
40
40
40
40
40
40
40
40
80
ENDCHAR
STARTCHAR 0135
ENCODING 309
SWIDTH 157 0
DWIDTH 3 0
BBX 4 19 0 -4
BITMAP
40
A0
90
00
00
40
40
40
40
40
40
40
40
40
40
40
40
80
80
ENDCHAR
STARTCHAR 0136
ENCODING 310
SWIDTH 526 0
DWIDTH 10 0
BBX 8 18 2 -4
BITMAP
81
82
84
88
90
90
E0
A0
90
88
84
84
82
81
00
00
10
10
ENDCHAR
STARTCHAR 0137
ENCODING 311
SWIDTH 421 0
DWIDTH 8 0
BBX 7 19 1 -4
BITMAP
80
80
80
80
82
84
84
88
90
E0
90
88
88
84
82
00
00
10
10
ENDCHAR
STARTCHAR 0138
ENCODING 312
SWIDTH 421 0
DWIDTH 8 0
BBX 7 10 1 0
BITMAP
86
84
88
90
E0
90
88
88
84
82
ENDCHAR
STARTCHAR 0139
ENCODING 313
SWIDTH 421 0
DWIDTH 8 0
BBX 6 18 2 0
BITMAP
C0
80
80
00
80
80
80
80
80
80
80
80
80
80
80
80
80
FC
ENDCHAR
STARTCHAR 013A
ENCODING 314
SWIDTH 157 0
DWIDTH 3 0
BBX 2 19 1 0
BITMAP
40
40
80
00
80
80
80
80
80
80
80
80
80
80
80
80
80
80
80
ENDCHAR
STARTCHAR 013B
ENCODING 315
SWIDTH 421 0
DWIDTH 8 0
BBX 6 18 2 -4
BITMAP
80
80
80
80
80
80
80
80
80
80
80
80
80
FC
00
00
30
10
ENDCHAR
STARTCHAR 013C
ENCODING 316
SWIDTH 157 0
DWIDTH 3 0
BBX 1 19 1 -4
BITMAP
80
80
80
80
80
80
80
80
80
80
80
80
80
80
80
00
00
80
80
ENDCHAR
STARTCHAR 013D
ENCODING 317
SWIDTH 421 0
DWIDTH 8 0
BBX 6 15 2 0
BITMAP
10
90
90
90
80
80
80
80
80
80
80
80
80
80
FC
ENDCHAR
STARTCHAR 013E
ENCODING 318
SWIDTH 157 0
DWIDTH 3 0
BBX 3 15 1 0
BITMAP
A0
A0
A0
A0
80
80
80
80
80
80
80
80
80
80
80
ENDCHAR
STARTCHAR 013F
ENCODING 319
SWIDTH 421 0
DWIDTH 8 0
BBX 6 14 2 0
BITMAP
80
80
80
80
80
80
98
80
80
80
80
80
80
FC
ENDCHAR
STARTCHAR 0140
ENCODING 320
SWIDTH 157 0
DWIDTH 3 0
BBX 3 15 1 0
BITMAP
80
80
80
80
80
80
80
A0
80
80
80
80
80
80
80
ENDCHAR
STARTCHAR 0141
ENCODING 321
SWIDTH 421 0
DWIDTH 8 0
BBX 8 14 0 0
BITMAP
40
40
40
40
48
50
60
40
C0
40
40
40
40
3F
ENDCHAR
STARTCHAR 0142
ENCODING 322
SWIDTH 157 0
DWIDTH 3 0
BBX 3 15 0 0
BITMAP
40
40
40
40
40
40
60
60
40
C0
40
40
40
40
40
ENDCHAR
STARTCHAR 0143
ENCODING 323
SWIDTH 631 0
DWIDTH 12 0
BBX 8 18 2 0
BITMAP
04
08
08
00
81
81
C1
C1
A1
91
91
89
89
85
85
83
81
81
ENDCHAR
STARTCHAR 0144
ENCODING 324
SWIDTH 473 0
DWIDTH 9 0
BBX 7 15 1 0
BITMAP
08
08
10
00
18
E4
82
82
82
82
82
82
82
82
82
ENDCHAR
STARTCHAR 0145
ENCODING 325
SWIDTH 631 0
DWIDTH 12 0
BBX 8 18 2 -4
BITMAP
81
81
C1
C1
A1
91
91
89
89
85
85
83
81
81
00
00
18
08
ENDCHAR
STARTCHAR 0146
ENCODING 326
SWIDTH 473 0
DWIDTH 9 0
BBX 7 14 1 -4
BITMAP
FC
82
82
82
82
82
82
82
82
82
00
00
10
10
ENDCHAR
STARTCHAR 0147
ENCODING 327
SWIDTH 631 0
DWIDTH 12 0
BBX 8 18 2 0
BITMAP
24
18
10
00
81
81
C1
C1
A1
91
91
89
89
85
85
83
81
81
ENDCHAR
STARTCHAR 0148
ENCODING 328
SWIDTH 473 0
DWIDTH 9 0
BBX 7 15 1 0
BITMAP
6C
28
10
00
18
E4
82
82
82
82
82
82
82
82
82
ENDCHAR
STARTCHAR 0149
ENCODING 329
SWIDTH 473 0
DWIDTH 9 0
BBX 8 15 0 0
BITMAP
80
80
00
00
0C
72
41
41
41
41
41
41
41
41
41
ENDCHAR
STARTCHAR 014A
ENCODING 330
SWIDTH 631 0
DWIDTH 12 0
BBX 8 18 2 -4
BITMAP
81
81
C1
C1
A1
91
91
89
89
85
85
83
81
81
01
01
01
02
ENDCHAR
STARTCHAR 014B
ENCODING 331
SWIDTH 473 0
DWIDTH 9 0
BBX 7 14 1 -4
BITMAP
FC
82
82
82
82
82
82
82
82
82
02
04
04
08
ENDCHAR
STARTCHAR 014C
ENCODING 332
SWIDTH 578 0
DWIDTH 11 0
BBX 9 17 1 0
BITMAP
3E00
0000
0000
3E00
4100
8080
8080
8080
8080
8080
8080
8080
8080
8080
8080
4100
3E00
ENDCHAR
STARTCHAR 014D
ENCODING 333
SWIDTH 473 0
DWIDTH 9 0
BBX 7 14 1 0
BITMAP
7C
00
00
10
6C
84
82
82
82
82
82
82
84
78
ENDCHAR
STARTCHAR 014E
ENCODING 334
SWIDTH 578 0
DWIDTH 11 0
BBX 9 18 1 0
BITMAP
2200
2200
1C00
0000
3E00
4100
8080
8080
8080
8080
8080
8080
8080
8080
8080
8080
4100
3E00
ENDCHAR
STARTCHAR 014F
ENCODING 335
SWIDTH 473 0
DWIDTH 9 0
BBX 7 15 1 0
BITMAP
44
48
30
00
10
6C
84
82
82
82
82
82
82
84
78
ENDCHAR
STARTCHAR 0150
ENCODING 336
SWIDTH 578 0
DWIDTH 11 0
BBX 9 18 1 0
BITMAP
0A00
1200
1400
0000
3E00
4100
8080
8080
8080
8080
8080
8080
8080
8080
8080
8080
4100
3E00
ENDCHAR
STARTCHAR 0151
ENCODING 337
SWIDTH 473 0
DWIDTH 9 0
BBX 7 15 1 0
BITMAP
24
28
28
00
10
6C
84
82
82
82
82
82
82
84
78
ENDCHAR
STARTCHAR 0152
ENCODING 338
SWIDTH 842 0
DWIDTH 16 0
BBX 14 14 1 0
BITMAP
3FFC
4100
4100
8100
8100
8100
80F8
8100
8100
8100
8100
4100
2100
1FFC
ENDCHAR
STARTCHAR 0153
ENCODING 339
SWIDTH 736 0
DWIDTH 14 0
BBX 12 10 1 0
BITMAP
7DE0
8610
8210
8210
83F0
8200
8200
8200
8500
78F0
ENDCHAR
STARTCHAR 0154
ENCODING 340
SWIDTH 578 0
DWIDTH 11 0
BBX 8 18 2 0
BITMAP
08
10
10
00
FC
82
82
82
82
82
84
F8
90
88
84
82
82
81
ENDCHAR
STARTCHAR 0155
ENCODING 341
SWIDTH 263 0
DWIDTH 5 0
BBX 4 15 1 0
BITMAP
10
20
20
00
00
B0
C0
80
80
80
80
80
80
80
80
ENDCHAR
STARTCHAR 0156
ENCODING 342
SWIDTH 578 0
DWIDTH 11 0
BBX 8 18 2 -4
BITMAP
FC
82
82
82
82
82
84
F8
90
88
84
82
82
81
00
00
10
10
ENDCHAR
STARTCHAR 0157
ENCODING 343
SWIDTH 263 0
DWIDTH 5 0
BBX 4 14 1 -4
BITMAP
B0
C0
80
80
80
80
80
80
80
80
00
00
80
80
ENDCHAR
STARTCHAR 0158
ENCODING 344
SWIDTH 578 0
DWIDTH 11 0
BBX 8 18 2 0
BITMAP
48
30
20
00
FC
82
82
82
82
82
84
F8
90
88
84
82
82
81
ENDCHAR
STARTCHAR 0159
ENCODING 345
SWIDTH 263 0
DWIDTH 5 0
BBX 4 15 1 0
BITMAP
90
60
60
00
00
B0
C0
80
80
80
80
80
80
80
80
ENDCHAR
STARTCHAR 015A
ENCODING 346
SWIDTH 421 0
DWIDTH 8 0
BBX 7 18 1 0
BITMAP
08
10
10
00
7C
80
80
80
80
80
60
18
04
02
02
02
04
F8
ENDCHAR
STARTCHAR 015B
ENCODING 347
SWIDTH 368 0
DWIDTH 7 0
BBX 5 15 1 0
BITMAP
10
10
20
00
30
C8
80
80
80
60
18
08
08
08
F0
ENDCHAR
STARTCHAR 015C
ENCODING 348
SWIDTH 421 0
DWIDTH 8 0
BBX 7 18 1 0
BITMAP
10
28
48
00
7C
80
80
80
80
80
60
18
04
02
02
02
04
F8
ENDCHAR
STARTCHAR 015D
ENCODING 349
SWIDTH 368 0
DWIDTH 7 0
BBX 5 15 1 0
BITMAP
20
50
D8
00
30
C8
80
80
80
60
18
08
08
08
F0
ENDCHAR
STARTCHAR 015E
ENCODING 350
SWIDTH 421 0
DWIDTH 8 0
BBX 7 18 1 -4
BITMAP
7C
80
80
80
80
80
60
18
04
02
02
02
04
F8
10
18
08
38
ENDCHAR
STARTCHAR 015F
ENCODING 351
SWIDTH 368 0
DWIDTH 7 0
BBX 5 14 1 -4
BITMAP
F8
80
80
80
60
18
08
08
08
D0
20
30
10
70
ENDCHAR
STARTCHAR 0160
ENCODING 352
SWIDTH 421 0
DWIDTH 8 0
BBX 7 18 1 0
BITMAP
48
28
10
00
7C
80
80
80
80
80
60
18
04
02
02
02
04
F8
ENDCHAR
STARTCHAR 0161
ENCODING 353
SWIDTH 368 0
DWIDTH 7 0
BBX 5 15 1 0
BITMAP
D8
50
20
00
30
C8
80
80
80
60
18
08
08
08
F0
ENDCHAR
STARTCHAR 0162
ENCODING 354
SWIDTH 473 0
DWIDTH 9 0
BBX 9 18 0 -4
BITMAP
FF80
0800
0800
0800
0800
0800
0800
0800
0800
0800
0800
0800
0800
0800
0800
0C00
0200
1C00
ENDCHAR
STARTCHAR 0163
ENCODING 355
SWIDTH 315 0
DWIDTH 6 0
BBX 6 18 0 -4
BITMAP
20
20
20
20
F8
20
20
20
20
20
20
20
20
1C
10
08
04
38
ENDCHAR
STARTCHAR 0164
ENCODING 356
SWIDTH 473 0
DWIDTH 9 0
BBX 9 18 0 0
BITMAP
3200
1400
0800
0000
FF80
0800
0800
0800
0800
0800
0800
0800
0800
0800
0800
0800
0800
0800
ENDCHAR
STARTCHAR 0165
ENCODING 357
SWIDTH 315 0
DWIDTH 6 0
BBX 6 15 0 0
BITMAP
08
28
28
28
20
F8
20
20
20
20
20
20
20
20
1C
ENDCHAR
STARTCHAR 0166
ENCODING 358
SWIDTH 473 0
DWIDTH 9 0
BBX 9 14 0 0
BITMAP
FF80
0800
0800
0800
0800
0800
7F00
0800
0800
0800
0800
0800
0800
0800
ENDCHAR
STARTCHAR 0167
ENCODING 359
SWIDTH 315 0
DWIDTH 6 0
BBX 6 14 0 0
BITMAP
20
20
20
20
F8
20
20
78
20
20
20
20
20
1C
ENDCHAR
STARTCHAR 0168
ENCODING 360
SWIDTH 578 0
DWIDTH 11 0
BBX 9 17 1 0
BITMAP
3E00
0000
0000
8080
8080
8080
8080
8080
8080
8080
8080
8080
8080
8080
4080
4100
3E00
ENDCHAR
STARTCHAR 0169
ENCODING 361
SWIDTH 473 0
DWIDTH 9 0
BBX 6 14 1 0
BITMAP
7C
00
00
00
84
84
84
84
84
84
84
84
84
7C
ENDCHAR
STARTCHAR 016A
ENCODING 362
SWIDTH 578 0
DWIDTH 11 0
BBX 9 17 1 0
BITMAP
3E00
0000
0000
8080
8080
8080
8080
8080
8080
8080
8080
8080
8080
8080
4080
4100
3E00
ENDCHAR
STARTCHAR 016B
ENCODING 363
SWIDTH 473 0
DWIDTH 9 0
BBX 6 14 1 0
BITMAP
7C
00
00
00
84
84
84
84
84
84
84
84
84
7C
ENDCHAR
STARTCHAR 016C
ENCODING 364
SWIDTH 578 0
DWIDTH 11 0
BBX 9 18 1 0
BITMAP
2200
1200
0C00
0000
8080
8080
8080
8080
8080
8080
8080
8080
8080
8080
8080
4080
4100
3E00
ENDCHAR
STARTCHAR 016D
ENCODING 365
SWIDTH 473 0
DWIDTH 9 0
BBX 6 15 1 0
BITMAP
44
48
30
00
00
84
84
84
84
84
84
84
84
84
7C
ENDCHAR
STARTCHAR 016E
ENCODING 366
SWIDTH 578 0
DWIDTH 11 0
BBX 9 19 1 0
BITMAP
0C00
1200
1200
0C00
0000
8080
8080
8080
8080
8080
8080
8080
8080
8080
8080
8080
4080
4100
3E00
ENDCHAR
STARTCHAR 016F
ENCODING 367
SWIDTH 473 0
DWIDTH 9 0
BBX 6 15 1 0
BITMAP
38
48
38
00
00
84
84
84
84
84
84
84
84
84
7C
ENDCHAR
STARTCHAR 0170
ENCODING 368
SWIDTH 578 0
DWIDTH 11 0
BBX 9 18 1 0
BITMAP
0A00
1200
1400
0000
8080
8080
8080
8080
8080
8080
8080
8080
8080
8080
8080
4080
4100
3E00
ENDCHAR
STARTCHAR 0171
ENCODING 369
SWIDTH 473 0
DWIDTH 9 0
BBX 6 15 1 0
BITMAP
24
28
28
00
00
84
84
84
84
84
84
84
84
84
7C
ENDCHAR
STARTCHAR 0172
ENCODING 370
SWIDTH 578 0
DWIDTH 11 0
BBX 9 18 1 -4
BITMAP
8080
8080
8080
8080
8080
8080
8080
8080
8080
8080
8080
4080
4100
3600
0800
1000
1000
0E00
ENDCHAR
STARTCHAR 0173
ENCODING 371
SWIDTH 473 0
DWIDTH 9 0
BBX 7 14 1 -4
BITMAP
82
82
82
82
82
82
82
82
84
7A
04
08
08
06
ENDCHAR
STARTCHAR 0174
ENCODING 372
SWIDTH 894 0
DWIDTH 17 0
BBX 15 18 1 0
BITMAP
0100
0280
0440
0000
8102
8302
8282
8282
4284
4484
4444
4444
2448
2848
2828
2828
1030
1010
ENDCHAR
STARTCHAR 0175
ENCODING 373
SWIDTH 736 0
DWIDTH 14 0
BBX 13 15 0 0
BITMAP
0300
0500
0480
0000
8000
4308
4308
4508
4490
2490
2490
2890
2860
1860
1060
ENDCHAR
STARTCHAR 0176
ENCODING 374
SWIDTH 473 0
DWIDTH 9 0
BBX 9 18 0 0
BITMAP
0800
1400
2200
0000
8080
4080
4100
2200
2200
1400
0C00
0800
0800
0800
0800
0800
0800
0800
ENDCHAR
STARTCHAR 0177
ENCODING 375
SWIDTH 421 0
DWIDTH 8 0
BBX 8 19 0 -4
BITMAP
18
14
24
00
00
81
41
42
42
22
24
24
14
18
18
08
10
10
20
ENDCHAR
STARTCHAR 0178
ENCODING 376
SWIDTH 473 0
DWIDTH 9 0
BBX 9 17 0 0
BITMAP
3200
0000
0000
8080
4080
4100
2200
2200
1400
0C00
0800
0800
0800
0800
0800
0800
0800
ENDCHAR
STARTCHAR 0179
ENCODING 377
SWIDTH 473 0
DWIDTH 9 0
BBX 8 18 1 0
BITMAP
08
08
10
00
FE
02
04
04
08
08
10
10
20
20
40
40
80
FF
ENDCHAR
STARTCHAR 017A
ENCODING 378
SWIDTH 368 0
DWIDTH 7 0
BBX 6 15 1 0
BITMAP
10
10
20
00
00
F8
08
10
10
20
20
40
40
80
FC
ENDCHAR
STARTCHAR 017B
ENCODING 379
SWIDTH 473 0
DWIDTH 9 0
BBX 8 17 1 0
BITMAP
10
00
00
FE
02
04
04
08
08
10
10
20
20
40
40
80
FF
ENDCHAR
STARTCHAR 017C
ENCODING 380
SWIDTH 368 0
DWIDTH 7 0
BBX 6 14 1 0
BITMAP
20
00
00
00
F8
08
10
10
20
20
40
40
80
FC
ENDCHAR
STARTCHAR 017D
ENCODING 381
SWIDTH 473 0
DWIDTH 9 0
BBX 8 18 1 0
BITMAP
44
28
10
00
FE
02
04
04
08
08
10
10
20
20
40
40
80
FF
ENDCHAR
STARTCHAR 017E
ENCODING 382
SWIDTH 368 0
DWIDTH 7 0
BBX 6 15 1 0
BITMAP
58
50
20
00
00
F8
08
10
10
20
20
40
40
80
FC
ENDCHAR
STARTCHAR 018F
ENCODING 399
SWIDTH 578 0
DWIDTH 11 0
BBX 9 14 1 0
BITMAP
FE00
0100
0080
0080
0080
0080
7F80
8080
8080
8080
8080
8080
4100
3E00
ENDCHAR
STARTCHAR 0192
ENCODING 402
SWIDTH 263 0
DWIDTH 5 0
BBX 7 20 -1 -4
BITMAP
0E
10
10
10
10
10
7C
10
10
10
10
10
10
10
10
10
10
10
10
E0
ENDCHAR
STARTCHAR 01A0
ENCODING 416
SWIDTH 578 0
DWIDTH 11 0
BBX 9 17 1 0
BITMAP
0080
0080
0080
3F00
4100
8080
8080
8080
8080
8080
8080
8080
8080
8080
8080
4100
3E00
ENDCHAR
STARTCHAR 01A1
ENCODING 417
SWIDTH 473 0
DWIDTH 9 0
BBX 7 13 1 0
BITMAP
02
02
12
6C
84
82
82
82
82
82
82
84
78
ENDCHAR
STARTCHAR 01AF
ENCODING 431
SWIDTH 578 0
DWIDTH 11 0
BBX 11 17 1 0
BITMAP
0020
0020
0020
80C0
8080
8080
8080
8080
8080
8080
8080
8080
8080
8080
4080
4100
3E00
ENDCHAR
STARTCHAR 01B0
ENCODING 432
SWIDTH 473 0
DWIDTH 9 0
BBX 8 13 1 0
BITMAP
01
01
01
82
82
82
82
82
82
82
82
84
7A
ENDCHAR
STARTCHAR 01C4
ENCODING 452
SWIDTH 1052 0
DWIDTH 20 0
BBX 17 18 2 0
BITMAP
001200
000C00
000400
000000
F87F80
860100
820100
810200
810200
810400
810400
810800
810800
811000
811000
822000
842000
F87F80
ENDCHAR
STARTCHAR 01C5
ENCODING 453
SWIDTH 947 0
DWIDTH 18 0
BBX 16 15 2 0
BITMAP
0022
F814
8608
8200
8100
813E
8102
8104
8104
8108
8108
8110
8210
8420
F87F
ENDCHAR
STARTCHAR 01C6
ENCODING 454
SWIDTH 842 0
DWIDTH 16 0
BBX 14 15 1 0
BITMAP
0448
0428
0410
0400
1C00
64FC
8404
8408
8410
8410
8420
8420
8440
8440
7AFC
ENDCHAR
STARTCHAR 01C7
ENCODING 455
SWIDTH 631 0
DWIDTH 12 0
BBX 9 17 2 -3
BITMAP
8080
8080
8080
8080
8080
8080
8080
8080
8080
8080
8080
8080
8080
FC80
0100
0100
0200
ENDCHAR
STARTCHAR 01C8
ENCODING 456
SWIDTH 631 0
DWIDTH 12 0
BBX 9 18 2 -4
BITMAP
8080
8000
8000
8000
8080
8080
8080
8080
8080
8080
8080
8080
8080
FC80
0100
0100
0100
0200
ENDCHAR
STARTCHAR 01C9
ENCODING 457
SWIDTH 368 0
DWIDTH 7 0
BBX 5 19 1 -4
BITMAP
80
98
80
80
80
88
88
88
88
88
88
88
88
88
88
10
10
10
20
ENDCHAR
STARTCHAR 01CA
ENCODING 458
SWIDTH 842 0
DWIDTH 16 0
BBX 12 17 2 -3
BITMAP
8110
8110
C110
C110
A110
9110
9110
8910
8910
8510
8510
8310
8110
8110
0010
0020
0020
ENDCHAR
STARTCHAR 01CB
ENCODING 459
SWIDTH 789 0
DWIDTH 15 0
BBX 12 18 2 -4
BITMAP
8110
8100
C100
C100
A110
9110
9110
8910
8910
8510
8510
8310
8110
8110
0010
0010
0020
0020
ENDCHAR
STARTCHAR 01CC
ENCODING 460
SWIDTH 631 0
DWIDTH 12 0
BBX 10 18 1 -4
BITMAP
0040
0000
0000
1800
E440
8240
8240
8240
8240
8240
8240
8240
8240
8240
0040
0040
0080
0080
ENDCHAR
STARTCHAR 01E6
ENCODING 486
SWIDTH 578 0
DWIDTH 11 0
BBX 8 18 1 0
BITMAP
12
0C
08
00
3F
40
40
80
80
80
80
81
81
81
81
41
61
1F
ENDCHAR
STARTCHAR 01E7
ENCODING 487
SWIDTH 473 0
DWIDTH 9 0
BBX 6 19 1 -4
BITMAP
6C
28
10
00
18
64
84
84
84
84
84
84
84
84
7C
04
04
04
F8
ENDCHAR
STARTCHAR 01EA
ENCODING 490
SWIDTH 578 0
DWIDTH 11 0
BBX 9 18 1 -4
BITMAP
3E00
4100
8080
8080
8080
8080
8080
8080
8080
8080
8080
8080
4100
3600
0800
0800
1000
0E00
ENDCHAR
STARTCHAR 01EB
ENCODING 491
SWIDTH 473 0
DWIDTH 9 0
BBX 7 14 1 -4
BITMAP
7C
84
82
82
82
82
82
82
84
68
10
20
20
18
ENDCHAR
STARTCHAR 01F1
ENCODING 497
SWIDTH 1052 0
DWIDTH 20 0
BBX 17 14 2 0
BITMAP
F87F80
860100
820100
810200
810200
810400
810400
810800
810800
811000
811000
822000
842000
F87F80
ENDCHAR
STARTCHAR 01F2
ENCODING 498
SWIDTH 947 0
DWIDTH 18 0
BBX 16 14 2 0
BITMAP
F800
8600
8200
8100
813E
8102
8104
8104
8108
8108
8110
8210
8420
F87F
ENDCHAR
STARTCHAR 01F3
ENCODING 499
SWIDTH 842 0
DWIDTH 16 0
BBX 14 15 1 0
BITMAP
0400
0400
0400
0400
1C00
64FC
8404
8408
8410
8410
8420
8420
8440
8440
7AFC
ENDCHAR
STARTCHAR 01F4
ENCODING 500
SWIDTH 578 0
DWIDTH 11 0
BBX 8 18 1 0
BITMAP
06
04
08
00
3F
40
40
80
80
80
80
81
81
81
81
41
61
1F
ENDCHAR
STARTCHAR 01F5
ENCODING 501
SWIDTH 473 0
DWIDTH 9 0
BBX 6 19 1 -4
BITMAP
08
08
10
00
18
64
84
84
84
84
84
84
84
84
7C
04
04
04
F8
ENDCHAR
STARTCHAR 01FA
ENCODING 506
SWIDTH 578 0
DWIDTH 11 0
BBX 10 20 0 0
BITMAP
0100
0E00
1200
1200
0C00
0000
0400
0C00
0A00
0A00
1200
1100
1100
2100
3F80
2080
4080
4040
4040
8040
ENDCHAR
STARTCHAR 01FB
ENCODING 507
SWIDTH 421 0
DWIDTH 8 0
BBX 6 17 1 0
BITMAP
04
38
48
48
30
00
30
C8
04
04
04
3C
C4
84
84
84
7C
ENDCHAR
STARTCHAR 01FC
ENCODING 508
SWIDTH 789 0
DWIDTH 15 0
BBX 14 18 0 0
BITMAP
0080
0080
0100
0000
07FC
0900
0900
0900
1100
1100
11F8
2100
3F00
2100
4100
4100
4080
80FC
ENDCHAR
STARTCHAR 01FD
ENCODING 509
SWIDTH 684 0
DWIDTH 13 0
BBX 12 15 1 0
BITMAP
0200
0200
0400
0000
3080
CB60
0420
0410
0410
3FF0
C400
8400
8400
8600
79E0
ENDCHAR
STARTCHAR 01FE
ENCODING 510
SWIDTH 578 0
DWIDTH 11 0
BBX 9 18 1 0
BITMAP
0400
0400
0800
0000
3E80
4100
8100
8280
8280
8480
8880
8880
9080
A080
A080
4080
4100
BE00
ENDCHAR
STARTCHAR 01FF
ENCODING 511
SWIDTH 473 0
DWIDTH 9 0
BBX 7 15 1 0
BITMAP
08
10
10
00
10
6E
84
8A
8A
92
A2
A2
C2
84
F8
ENDCHAR
STARTCHAR 0200
ENCODING 512
SWIDTH 578 0
DWIDTH 11 0
BBX 10 18 0 0
BITMAP
1400
1200
0A00
0000
0400
0C00
0A00
0A00
1200
1100
1100
2100
3F80
2080
4080
4040
4040
8040
ENDCHAR
STARTCHAR 0201
ENCODING 513
SWIDTH 421 0
DWIDTH 8 0
BBX 6 15 1 0
BITMAP
50
50
48
00
30
C8
04
04
04
3C
C4
84
84
84
7C
ENDCHAR
STARTCHAR 0202
ENCODING 514
SWIDTH 578 0
DWIDTH 11 0
BBX 10 18 0 0
BITMAP
0E00
1100
0000
0000
0400
0C00
0A00
0A00
1200
1100
1100
2100
3F80
2080
4080
4040
4040
8040
ENDCHAR
STARTCHAR 0203
ENCODING 515
SWIDTH 421 0
DWIDTH 8 0
BBX 6 15 1 0
BITMAP
78
48
48
00
30
C8
04
04
04
3C
C4
84
84
84
7C
ENDCHAR
STARTCHAR 0204
ENCODING 516
SWIDTH 473 0
DWIDTH 9 0
BBX 7 18 2 0
BITMAP
50
48
28
00
FE
80
80
80
80
80
FC
80
80
80
80
80
80
FE
ENDCHAR
STARTCHAR 0205
ENCODING 517
SWIDTH 421 0
DWIDTH 8 0
BBX 6 15 1 0
BITMAP
50
50
48
00
30
48
84
84
84
FC
80
80
80
80
7C
ENDCHAR
STARTCHAR 0206
ENCODING 518
SWIDTH 473 0
DWIDTH 9 0
BBX 7 18 2 0
BITMAP
38
44
00
00
FE
80
80
80
80
80
FC
80
80
80
80
80
80
FE
ENDCHAR
STARTCHAR 0207
ENCODING 519
SWIDTH 421 0
DWIDTH 8 0
BBX 6 15 1 0
BITMAP
78
48
48
00
30
48
84
84
84
FC
80
80
80
80
7C
ENDCHAR
STARTCHAR 0208
ENCODING 520
SWIDTH 210 0
DWIDTH 4 0
BBX 3 18 0 0
BITMAP
A0
A0
A0
00
40
40
40
40
40
40
40
40
40
40
40
40
40
40
ENDCHAR
STARTCHAR 0209
ENCODING 521
SWIDTH 157 0
DWIDTH 3 0
BBX 4 15 -1 0
BITMAP
90
50
50
00
00
20
20
20
20
20
20
20
20
20
20
ENDCHAR
STARTCHAR 020A
ENCODING 522
SWIDTH 210 0
DWIDTH 4 0
BBX 4 18 0 0
BITMAP
60
90
00
00
40
40
40
40
40
40
40
40
40
40
40
40
40
40
ENDCHAR
STARTCHAR 020B
ENCODING 523
SWIDTH 157 0
DWIDTH 3 0
BBX 4 15 0 0
BITMAP
E0
90
90
00
00
40
40
40
40
40
40
40
40
40
40
ENDCHAR
STARTCHAR 020C
ENCODING 524
SWIDTH 578 0
DWIDTH 11 0
BBX 9 18 1 0
BITMAP
2400
2400
1400
0000
3E00
4100
8080
8080
8080
8080
8080
8080
8080
8080
8080
8080
4100
3E00
ENDCHAR
STARTCHAR 020D
ENCODING 525
SWIDTH 473 0
DWIDTH 9 0
BBX 7 15 1 0
BITMAP
50
48
48
00
10
6C
84
82
82
82
82
82
82
84
78
ENDCHAR
STARTCHAR 020E
ENCODING 526
SWIDTH 578 0
DWIDTH 11 0
BBX 9 18 1 0
BITMAP
1C00
2200
0000
0000
3E00
4100
8080
8080
8080
8080
8080
8080
8080
8080
8080
8080
4100
3E00
ENDCHAR
STARTCHAR 020F
ENCODING 527
SWIDTH 473 0
DWIDTH 9 0
BBX 7 15 1 0
BITMAP
38
48
44
00
10
6C
84
82
82
82
82
82
82
84
78
ENDCHAR
STARTCHAR 0210
ENCODING 528
SWIDTH 578 0
DWIDTH 11 0
BBX 8 18 2 0
BITMAP
50
50
48
00
FC
82
82
82
82
82
84
F8
90
88
84
82
82
81
ENDCHAR
STARTCHAR 0211
ENCODING 529
SWIDTH 263 0
DWIDTH 5 0
BBX 4 15 1 0
BITMAP
A0
A0
90
00
00
B0
C0
80
80
80
80
80
80
80
80
ENDCHAR
STARTCHAR 0212
ENCODING 530
SWIDTH 578 0
DWIDTH 11 0
BBX 8 18 2 0
BITMAP
30
48
00
00
FC
82
82
82
82
82
84
F8
90
88
84
82
82
81
ENDCHAR
STARTCHAR 0213
ENCODING 531
SWIDTH 263 0
DWIDTH 5 0
BBX 4 15 1 0
BITMAP
F0
90
90
00
00
B0
C0
80
80
80
80
80
80
80
80
ENDCHAR
STARTCHAR 0214
ENCODING 532
SWIDTH 578 0
DWIDTH 11 0
BBX 9 18 1 0
BITMAP
2400
1400
1400
0000
8080
8080
8080
8080
8080
8080
8080
8080
8080
8080
8080
4080
4100
3E00
ENDCHAR
STARTCHAR 0215
ENCODING 533
SWIDTH 473 0
DWIDTH 9 0
BBX 6 15 1 0
BITMAP
50
48
48
00
00
84
84
84
84
84
84
84
84
84
7C
ENDCHAR
STARTCHAR 0216
ENCODING 534
SWIDTH 578 0
DWIDTH 11 0
BBX 9 18 1 0
BITMAP
1C00
2200
0000
0000
8080
8080
8080
8080
8080
8080
8080
8080
8080
8080
8080
4080
4100
3E00
ENDCHAR
STARTCHAR 0217
ENCODING 535
SWIDTH 473 0
DWIDTH 9 0
BBX 6 15 1 0
BITMAP
38
48
44
00
00
84
84
84
84
84
84
84
84
84
7C
ENDCHAR
STARTCHAR 0218
ENCODING 536
SWIDTH 421 0
DWIDTH 8 0
BBX 7 18 1 -4
BITMAP
7C
80
80
80
80
80
60
18
04
02
02
02
04
F8
00
00
10
10
ENDCHAR
STARTCHAR 0219
ENCODING 537
SWIDTH 368 0
DWIDTH 7 0
BBX 5 14 1 -4
BITMAP
F8
80
80
80
60
18
08
08
08
F0
00
00
20
20
ENDCHAR
STARTCHAR 021A
ENCODING 538
SWIDTH 473 0
DWIDTH 9 0
BBX 9 18 0 -4
BITMAP
FF80
0800
0800
0800
0800
0800
0800
0800
0800
0800
0800
0800
0800
0800
0000
0000
0800
0800
ENDCHAR
STARTCHAR 021B
ENCODING 539
SWIDTH 315 0
DWIDTH 6 0
BBX 6 18 0 -4
BITMAP
20
20
20
20
F8
20
20
20
20
20
20
20
20
1C
00
00
10
10
ENDCHAR
STARTCHAR 022A
ENCODING 554
SWIDTH 578 0
DWIDTH 11 0
BBX 9 19 1 0
BITMAP
3E00
0000
2200
0000
0000
3E00
4100
8080
8080
8080
8080
8080
8080
8080
8080
8080
8080
4100
3E00
ENDCHAR
STARTCHAR 022B
ENCODING 555
SWIDTH 473 0
DWIDTH 9 0
BBX 7 17 1 0
BITMAP
7C
00
00
48
00
00
10
6C
84
82
82
82
82
82
82
84
78
ENDCHAR
STARTCHAR 022C
ENCODING 556
SWIDTH 578 0
DWIDTH 11 0
BBX 9 19 1 0
BITMAP
3E00
1000
2E00
0000
0000
3E00
4100
8080
8080
8080
8080
8080
8080
8080
8080
8080
8080
4100
3E00
ENDCHAR
STARTCHAR 022D
ENCODING 557
SWIDTH 473 0
DWIDTH 9 0
BBX 7 17 1 0
BITMAP
7C
00
20
5C
00
00
10
6C
84
82
82
82
82
82
82
84
78
ENDCHAR
STARTCHAR 0230
ENCODING 560
SWIDTH 578 0
DWIDTH 11 0
BBX 9 19 1 0
BITMAP
3E00
0000
0800
0000
0000
3E00
4100
8080
8080
8080
8080
8080
8080
8080
8080
8080
8080
4100
3E00
ENDCHAR
STARTCHAR 0231
ENCODING 561
SWIDTH 473 0
DWIDTH 9 0
BBX 7 17 1 0
BITMAP
7C
00
00
10
00
00
10
6C
84
82
82
82
82
82
82
84
78
ENDCHAR
STARTCHAR 0232
ENCODING 562
SWIDTH 473 0
DWIDTH 9 0
BBX 9 17 0 0
BITMAP
3E00
0000
0000
8080
4080
4100
2200
2200
1400
0C00
0800
0800
0800
0800
0800
0800
0800
ENDCHAR
STARTCHAR 0233
ENCODING 563
SWIDTH 421 0
DWIDTH 8 0
BBX 8 18 0 -4
BITMAP
3C
00
00
00
81
41
42
42
22
24
24
14
18
18
08
10
10
20
ENDCHAR
STARTCHAR 0237
ENCODING 567
SWIDTH 157 0
DWIDTH 3 0
BBX 2 14 0 -4
BITMAP
40
40
40
40
40
40
40
40
40
40
40
40
80
80
ENDCHAR
STARTCHAR 0259
ENCODING 601
SWIDTH 421 0
DWIDTH 8 0
BBX 6 10 1 0
BITMAP
F8
04
04
04
04
FC
84
84
84
78
ENDCHAR
STARTCHAR 02BB
ENCODING 699
SWIDTH 421 0
DWIDTH 8 0
BBX 1 2 3 13
BITMAP
80
80
ENDCHAR
STARTCHAR 02BC
ENCODING 700
SWIDTH 421 0
DWIDTH 8 0
BBX 1 2 4 13
BITMAP
80
80
ENDCHAR
STARTCHAR 02BE
ENCODING 702
SWIDTH 421 0
DWIDTH 8 0
BBX 2 3 4 12
BITMAP
C0
40
80
ENDCHAR
STARTCHAR 02BF
ENCODING 703
SWIDTH 421 0
DWIDTH 8 0
BBX 2 3 2 12
BITMAP
C0
80
C0
ENDCHAR
STARTCHAR 02C6
ENCODING 710
SWIDTH 421 0
DWIDTH 8 0
BBX 4 3 4 12
BITMAP
40
A0
90
ENDCHAR
STARTCHAR 02C7
ENCODING 711
SWIDTH 421 0
DWIDTH 8 0
BBX 4 3 4 12
BITMAP
B0
A0
40
ENDCHAR
STARTCHAR 02C8
ENCODING 712
SWIDTH 578 0
DWIDTH 11 0
BBX 1 3 5 12
BITMAP
80
80
80
ENDCHAR
STARTCHAR 02C9
ENCODING 713
SWIDTH 421 0
DWIDTH 8 0
BBX 5 1 1 13
BITMAP
F8
ENDCHAR
STARTCHAR 02CA
ENCODING 714
SWIDTH 421 0
DWIDTH 8 0
BBX 2 3 4 12
BITMAP
C0
80
80
ENDCHAR
STARTCHAR 02CB
ENCODING 715
SWIDTH 421 0
DWIDTH 8 0
BBX 2 3 2 12
BITMAP
80
40
40
ENDCHAR
STARTCHAR 02CC
ENCODING 716
SWIDTH 578 0
DWIDTH 11 0
BBX 1 4 5 -4
BITMAP
80
80
80
80
ENDCHAR
STARTCHAR 02D8
ENCODING 728
SWIDTH 421 0
DWIDTH 8 0
BBX 4 3 4 12
BITMAP
90
90
60
ENDCHAR
STARTCHAR 02D9
ENCODING 729
SWIDTH 421 0
DWIDTH 8 0
BBX 1 1 5 13
BITMAP
80
ENDCHAR
STARTCHAR 02DA
ENCODING 730
SWIDTH 421 0
DWIDTH 8 0
BBX 3 3 4 12
BITMAP
E0
A0
E0
ENDCHAR
STARTCHAR 02DB
ENCODING 731
SWIDTH 421 0
DWIDTH 8 0
BBX 3 4 4 -4
BITMAP
C0
80
80
E0
ENDCHAR
STARTCHAR 02DC
ENCODING 732
SWIDTH 421 0
DWIDTH 8 0
BBX 5 1 3 13
BITMAP
F8
ENDCHAR
STARTCHAR 02DD
ENCODING 733
SWIDTH 421 0
DWIDTH 8 0
BBX 4 3 4 12
BITMAP
50
90
90
ENDCHAR
STARTCHAR 0300
ENCODING 768
SWIDTH 0 0
DWIDTH 0 0
BBX 2 3 4 12
BITMAP
80
40
40
ENDCHAR
STARTCHAR 0301
ENCODING 769
SWIDTH 0 0
DWIDTH 0 0
BBX 3 3 5 12
BITMAP
60
40
80
ENDCHAR
STARTCHAR 0302
ENCODING 770
SWIDTH 0 0
DWIDTH 0 0
BBX 4 3 4 12
BITMAP
40
A0
90
ENDCHAR
STARTCHAR 0303
ENCODING 771
SWIDTH 0 0
DWIDTH 0 0
BBX 5 1 3 13
BITMAP
F8
ENDCHAR
STARTCHAR 0304
ENCODING 772
SWIDTH 0 0
DWIDTH 0 0
BBX 5 1 3 13
BITMAP
F8
ENDCHAR
STARTCHAR 0306
ENCODING 774
SWIDTH 0 0
DWIDTH 0 0
BBX 4 3 4 12
BITMAP
90
90
60
ENDCHAR
STARTCHAR 0307
ENCODING 775
SWIDTH 0 0
DWIDTH 0 0
BBX 1 1 5 13
BITMAP
80
ENDCHAR
STARTCHAR 0308
ENCODING 776
SWIDTH 0 0
DWIDTH 0 0
BBX 4 1 4 13
BITMAP
90
ENDCHAR
STARTCHAR 0309
ENCODING 777
SWIDTH 0 0
DWIDTH 0 0
BBX 2 3 5 12
BITMAP
C0
40
80
ENDCHAR
STARTCHAR 030A
ENCODING 778
SWIDTH 0 0
DWIDTH 0 0
BBX 3 3 4 12
BITMAP
E0
A0
E0
ENDCHAR
STARTCHAR 030B
ENCODING 779
SWIDTH 0 0
DWIDTH 0 0
BBX 4 3 4 12
BITMAP
50
90
90
ENDCHAR
STARTCHAR 030C
ENCODING 780
SWIDTH 0 0
DWIDTH 0 0
BBX 4 3 4 12
BITMAP
B0
A0
40
ENDCHAR
STARTCHAR 030F
ENCODING 783
SWIDTH 0 0
DWIDTH 0 0
BBX 4 3 3 12
BITMAP
90
50
50
ENDCHAR
STARTCHAR 0311
ENCODING 785
SWIDTH 0 0
DWIDTH 0 0
BBX 4 3 4 12
BITMAP
E0
90
90
ENDCHAR
STARTCHAR 0312
ENCODING 786
SWIDTH 0 0
DWIDTH 0 0
BBX 1 2 5 13
BITMAP
80
80
ENDCHAR
STARTCHAR 031B
ENCODING 795
SWIDTH 0 0
DWIDTH 0 0
BBX 2 4 6 13
BITMAP
40
40
40
80
ENDCHAR
STARTCHAR 0323
ENCODING 803
SWIDTH 0 0
DWIDTH 0 0
BBX 1 1 5 -3
BITMAP
80
ENDCHAR
STARTCHAR 0324
ENCODING 804
SWIDTH 0 0
DWIDTH 0 0
BBX 4 1 4 -3
BITMAP
90
ENDCHAR
STARTCHAR 0326
ENCODING 806
SWIDTH 0 0
DWIDTH 0 0
BBX 1 2 5 -4
BITMAP
80
80
ENDCHAR
STARTCHAR 0327
ENCODING 807
SWIDTH 0 0
DWIDTH 0 0
BBX 3 4 4 -4
BITMAP
40
20
20
E0
ENDCHAR
STARTCHAR 0328
ENCODING 808
SWIDTH 0 0
DWIDTH 0 0
BBX 3 4 4 -4
BITMAP
C0
80
80
E0
ENDCHAR
STARTCHAR 032E
ENCODING 814
SWIDTH 0 0
DWIDTH 0 0
BBX 4 2 4 -4
BITMAP
90
60
ENDCHAR
STARTCHAR 0331
ENCODING 817
SWIDTH 0 0
DWIDTH 0 0
BBX 4 1 4 -3
BITMAP
F0
ENDCHAR
STARTCHAR 0394
ENCODING 916
SWIDTH 578 0
DWIDTH 11 0
BBX 10 14 0 0
BITMAP
0400
0C00
0A00
0A00
1200
1100
1100
2100
2080
2080
4080
4040
4040
FFC0
ENDCHAR
STARTCHAR 03A9
ENCODING 937
SWIDTH 578 0
DWIDTH 11 0
BBX 9 14 1 0
BITMAP
3E00
4100
8080
8080
8080
8080
8080
8080
8080
8080
8080
4100
2200
F780
ENDCHAR
STARTCHAR 03BC
ENCODING 956
SWIDTH 473 0
DWIDTH 9 0
BBX 6 14 1 -4
BITMAP
84
84
84
84
84
84
84
84
84
FC
80
80
80
80
ENDCHAR
STARTCHAR 03C0
ENCODING 960
SWIDTH 578 0
DWIDTH 11 0
BBX 11 10 0 0
BITMAP
FF80
2100
2100
2100
2100
2100
2100
2100
2100
20E0
ENDCHAR
STARTCHAR 1E08
ENCODING 7688
SWIDTH 473 0
DWIDTH 9 0
BBX 8 22 1 -4
BITMAP
04
04
08
00
3F
40
80
80
80
80
80
80
80
80
80
40
40
37
08
04
02
1C
ENDCHAR
STARTCHAR 1E09
ENCODING 7689
SWIDTH 368 0
DWIDTH 7 0
BBX 6 19 1 -4
BITMAP
08
10
10
00
18
64
80
80
80
80
80
80
80
80
6C
10
10
08
30
ENDCHAR
STARTCHAR 1E0C
ENCODING 7692
SWIDTH 578 0
DWIDTH 11 0
BBX 8 17 2 -3
BITMAP
F8
86
82
81
81
81
81
81
81
81
81
82
84
F8
00
00
20
ENDCHAR
STARTCHAR 1E0D
ENCODING 7693
SWIDTH 473 0
DWIDTH 9 0
BBX 6 18 1 -3
BITMAP
04
04
04
04
1C
64
84
84
84
84
84
84
84
84
7C
00
00
10
ENDCHAR
STARTCHAR 1E0E
ENCODING 7694
SWIDTH 578 0
DWIDTH 11 0
BBX 8 17 2 -3
BITMAP
F8
86
82
81
81
81
81
81
81
81
81
82
84
F8
00
00
78
ENDCHAR
STARTCHAR 1E0F
ENCODING 7695
SWIDTH 473 0
DWIDTH 9 0
BBX 6 18 1 -3
BITMAP
04
04
04
04
1C
64
84
84
84
84
84
84
84
84
7C
00
00
78
ENDCHAR
STARTCHAR 1E14
ENCODING 7700
SWIDTH 473 0
DWIDTH 9 0
BBX 7 20 2 0
BITMAP
20
20
10
7C
00
00
FE
80
80
80
80
80
FC
80
80
80
80
80
80
FE
ENDCHAR
STARTCHAR 1E15
ENCODING 7701
SWIDTH 421 0
DWIDTH 8 0
BBX 6 18 1 0
BITMAP
60
20
10
00
7C
00
00
30
48
84
84
84
FC
80
80
80
80
7C
ENDCHAR
STARTCHAR 1E16
ENCODING 7702
SWIDTH 473 0
DWIDTH 9 0
BBX 7 20 2 0
BITMAP
08
10
00
7C
00
00
FE
80
80
80
80
80
FC
80
80
80
80
80
80
FE
ENDCHAR
STARTCHAR 1E17
ENCODING 7703
SWIDTH 421 0
DWIDTH 8 0
BBX 6 18 1 0
BITMAP
08
10
10
00
7C
00
00
30
48
84
84
84
FC
80
80
80
80
7C
ENDCHAR
STARTCHAR 1E1C
ENCODING 7708
SWIDTH 473 0
DWIDTH 9 0
BBX 7 22 2 -4
BITMAP
44
48
30
00
FE
80
80
80
80
80
FC
80
80
80
80
80
80
FE
10
18
08
38
ENDCHAR
STARTCHAR 1E1D
ENCODING 7709
SWIDTH 421 0
DWIDTH 8 0
BBX 6 19 1 -4
BITMAP
48
48
30
00
30
48
84
84
84
FC
80
80
80
80
6C
10
10
08
30
ENDCHAR
STARTCHAR 1E20
ENCODING 7712
SWIDTH 578 0
DWIDTH 11 0
BBX 8 17 1 0
BITMAP
1E
00
00
3F
40
40
80
80
80
80
81
81
81
81
41
61
1F
ENDCHAR
STARTCHAR 1E21
ENCODING 7713
SWIDTH 473 0
DWIDTH 9 0
BBX 6 18 1 -4
BITMAP
7C
00
00
18
64
84
84
84
84
84
84
84
84
7C
04
04
04
F8
ENDCHAR
STARTCHAR 1E24
ENCODING 7716
SWIDTH 631 0
DWIDTH 12 0
BBX 8 17 2 -3
BITMAP
81
81
81
81
81
81
FF
81
81
81
81
81
81
81
00
00
10
ENDCHAR
STARTCHAR 1E25
ENCODING 7717
SWIDTH 473 0
DWIDTH 9 0
BBX 7 18 1 -3
BITMAP
80
80
80
80
98
E4
82
82
82
82
82
82
82
82
82
00
00
10
ENDCHAR
STARTCHAR 1E2A
ENCODING 7722
SWIDTH 631 0
DWIDTH 12 0
BBX 8 18 2 -4
BITMAP
81
81
81
81
81
81
FF
81
81
81
81
81
81
81
00
00
44
38
ENDCHAR
STARTCHAR 1E2B
ENCODING 7723
SWIDTH 473 0
DWIDTH 9 0
BBX 7 19 1 -4
BITMAP
80
80
80
80
98
E4
82
82
82
82
82
82
82
82
82
00
00
44
38
ENDCHAR
STARTCHAR 1E2E
ENCODING 7726
SWIDTH 210 0
DWIDTH 4 0
BBX 4 20 0 0
BITMAP
30
20
00
90
00
00
40
40
40
40
40
40
40
40
40
40
40
40
40
40
ENDCHAR
STARTCHAR 1E2F
ENCODING 7727
SWIDTH 157 0
DWIDTH 3 0
BBX 4 18 0 0
BITMAP
20
20
40
00
90
00
00
00
40
40
40
40
40
40
40
40
40
40
ENDCHAR
STARTCHAR 1E36
ENCODING 7734
SWIDTH 421 0
DWIDTH 8 0
BBX 6 17 2 -3
BITMAP
80
80
80
80
80
80
80
80
80
80
80
80
80
FC
00
00
30
ENDCHAR
STARTCHAR 1E37
ENCODING 7735
SWIDTH 157 0
DWIDTH 3 0
BBX 1 18 1 -3
BITMAP
80
80
80
80
80
80
80
80
80
80
80
80
80
80
80
00
00
80
ENDCHAR
STARTCHAR 1E3A
ENCODING 7738
SWIDTH 421 0
DWIDTH 8 0
BBX 6 17 2 -3
BITMAP
80
80
80
80
80
80
80
80
80
80
80
80
80
FC
00
00
78
ENDCHAR
STARTCHAR 1E3B
ENCODING 7739
SWIDTH 157 0
DWIDTH 3 0
BBX 4 18 0 -3
BITMAP
40
40
40
40
40
40
40
40
40
40
40
40
40
40
40
00
00
F0
ENDCHAR
STARTCHAR 1E42
ENCODING 7746
SWIDTH 736 0
DWIDTH 14 0
BBX 11 17 2 -3
BITMAP
8020
8060
8060
C0A0
C0A0
A0A0
A120
9120
9220
8A20
8C20
8420
8020
8020
0000
0000
0400
ENDCHAR
STARTCHAR 1E43
ENCODING 7747
SWIDTH 736 0
DWIDTH 14 0
BBX 12 13 1 -3
BITMAP
FDE0
8610
8410
8410
8410
8410
8410
8410
8410
8410
0000
0000
0600
ENDCHAR
STARTCHAR 1E44
ENCODING 7748
SWIDTH 631 0
DWIDTH 12 0
BBX 8 17 2 0
BITMAP
18
00
00
81
81
C1
C1
A1
91
91
89
89
85
85
83
81
81
ENDCHAR
STARTCHAR 1E45
ENCODING 7749
SWIDTH 473 0
DWIDTH 9 0
BBX 7 14 1 0
BITMAP
10
00
00
18
E4
82
82
82
82
82
82
82
82
82
ENDCHAR
STARTCHAR 1E46
ENCODING 7750
SWIDTH 631 0
DWIDTH 12 0
BBX 8 17 2 -3
BITMAP
81
81
C1
C1
A1
91
91
89
89
85
85
83
81
81
00
00
18
ENDCHAR
STARTCHAR 1E47
ENCODING 7751
SWIDTH 473 0
DWIDTH 9 0
BBX 7 13 1 -3
BITMAP
FC
82
82
82
82
82
82
82
82
82
00
00
10
ENDCHAR
STARTCHAR 1E48
ENCODING 7752
SWIDTH 631 0
DWIDTH 12 0
BBX 8 17 2 -3
BITMAP
81
81
C1
C1
A1
91
91
89
89
85
85
83
81
81
00
00
3C
ENDCHAR
STARTCHAR 1E49
ENCODING 7753
SWIDTH 473 0
DWIDTH 9 0
BBX 7 13 1 -3
BITMAP
FC
82
82
82
82
82
82
82
82
82
00
00
7C
ENDCHAR
STARTCHAR 1E4C
ENCODING 7756
SWIDTH 578 0
DWIDTH 11 0
BBX 9 20 1 0
BITMAP
0400
0800
1000
2E00
0000
0000
3E00
4100
8080
8080
8080
8080
8080
8080
8080
8080
8080
8080
4100
3E00
ENDCHAR
STARTCHAR 1E4D
ENCODING 7757
SWIDTH 473 0
DWIDTH 9 0
BBX 7 18 1 0
BITMAP
08
10
10
20
5C
00
00
10
6C
84
82
82
82
82
82
82
84
78
ENDCHAR
STARTCHAR 1E4E
ENCODING 7758
SWIDTH 578 0
DWIDTH 11 0
BBX 9 19 1 0
BITMAP
2200
1000
2E00
0000
0000
3E00
4100
8080
8080
8080
8080
8080
8080
8080
8080
8080
8080
4100
3E00
ENDCHAR
STARTCHAR 1E4F
ENCODING 7759
SWIDTH 473 0
DWIDTH 9 0
BBX 7 17 1 0
BITMAP
48
00
20
5C
00
00
10
6C
84
82
82
82
82
82
82
84
78
ENDCHAR
STARTCHAR 1E50
ENCODING 7760
SWIDTH 578 0
DWIDTH 11 0
BBX 9 20 1 0
BITMAP
1000
0800
0000
3E00
0000
0000
3E00
4100
8080
8080
8080
8080
8080
8080
8080
8080
8080
8080
4100
3E00
ENDCHAR
STARTCHAR 1E51
ENCODING 7761
SWIDTH 473 0
DWIDTH 9 0
BBX 7 18 1 0
BITMAP
20
20
10
00
7C
00
00
10
6C
84
82
82
82
82
82
82
84
78
ENDCHAR
STARTCHAR 1E52
ENCODING 7762
SWIDTH 578 0
DWIDTH 11 0
BBX 9 20 1 0
BITMAP
0400
0800
0000
3E00
0000
0000
3E00
4100
8080
8080
8080
8080
8080
8080
8080
8080
8080
8080
4100
3E00
ENDCHAR
STARTCHAR 1E53
ENCODING 7763
SWIDTH 473 0
DWIDTH 9 0
BBX 7 18 1 0
BITMAP
08
10
10
00
7C
00
00
10
6C
84
82
82
82
82
82
82
84
78
ENDCHAR
STARTCHAR 1E5A
ENCODING 7770
SWIDTH 578 0
DWIDTH 11 0
BBX 8 17 2 -3
BITMAP
FC
82
82
82
82
82
84
F8
90
88
84
82
82
81
00
00
10
ENDCHAR
STARTCHAR 1E5B
ENCODING 7771
SWIDTH 263 0
DWIDTH 5 0
BBX 4 13 1 -3
BITMAP
B0
C0
80
80
80
80
80
80
80
80
00
00
80
ENDCHAR
STARTCHAR 1E5E
ENCODING 7774
SWIDTH 578 0
DWIDTH 11 0
BBX 8 17 2 -3
BITMAP
FC
82
82
82
82
82
84
F8
90
88
84
82
82
81
00
00
7C
ENDCHAR
STARTCHAR 1E5F
ENCODING 7775
SWIDTH 263 0
DWIDTH 5 0
BBX 5 13 0 -3
BITMAP
58
60
40
40
40
40
40
40
40
40
00
00
F0
ENDCHAR
STARTCHAR 1E60
ENCODING 7776
SWIDTH 421 0
DWIDTH 8 0
BBX 7 17 1 0
BITMAP
10
00
00
7C
80
80
80
80
80
60
18
04
02
02
02
04
F8
ENDCHAR
STARTCHAR 1E61
ENCODING 7777
SWIDTH 368 0
DWIDTH 7 0
BBX 5 14 1 0
BITMAP
20
00
00
30
C8
80
80
80
60
18
08
08
08
F0
ENDCHAR
STARTCHAR 1E62
ENCODING 7778
SWIDTH 421 0
DWIDTH 8 0
BBX 7 17 1 -3
BITMAP
7C
80
80
80
80
80
60
18
04
02
02
02
04
F8
00
00
10
ENDCHAR
STARTCHAR 1E63
ENCODING 7779
SWIDTH 368 0
DWIDTH 7 0
BBX 5 13 1 -3
BITMAP
F8
80
80
80
60
18
08
08
08
F0
00
00
20
ENDCHAR
STARTCHAR 1E64
ENCODING 7780
SWIDTH 421 0
DWIDTH 8 0
BBX 7 19 1 0
BITMAP
20
08
10
10
00
7C
80
80
80
80
80
60
18
04
02
02
02
04
F8
ENDCHAR
STARTCHAR 1E65
ENCODING 7781
SWIDTH 368 0
DWIDTH 7 0
BBX 5 16 1 0
BITMAP
40
10
10
20
00
30
C8
80
80
80
60
18
08
08
08
F0
ENDCHAR
STARTCHAR 1E66
ENCODING 7782
SWIDTH 421 0
DWIDTH 8 0
BBX 7 19 1 0
BITMAP
10
48
28
10
00
7C
80
80
80
80
80
60
18
04
02
02
02
04
F8
ENDCHAR
STARTCHAR 1E67
ENCODING 7783
SWIDTH 368 0
DWIDTH 7 0
BBX 5 17 1 0
BITMAP
20
A8
50
50
20
00
30
C8
80
80
80
60
18
08
08
08
F0
ENDCHAR
STARTCHAR 1E68
ENCODING 7784
SWIDTH 421 0
DWIDTH 8 0
BBX 7 20 1 -3
BITMAP
10
00
00
7C
80
80
80
80
80
60
18
04
02
02
02
04
F8
00
00
10
ENDCHAR
STARTCHAR 1E69
ENCODING 7785
SWIDTH 368 0
DWIDTH 7 0
BBX 5 17 1 -3
BITMAP
20
00
00
30
C8
80
80
80
60
18
08
08
08
F0
00
00
20
ENDCHAR
STARTCHAR 1E6C
ENCODING 7788
SWIDTH 473 0
DWIDTH 9 0
BBX 9 17 0 -3
BITMAP
FF80
0800
0800
0800
0800
0800
0800
0800
0800
0800
0800
0800
0800
0800
0000
0000
0800
ENDCHAR
STARTCHAR 1E6D
ENCODING 7789
SWIDTH 315 0
DWIDTH 6 0
BBX 6 17 0 -3
BITMAP
20
20
20
20
F8
20
20
20
20
20
20
20
20
1C
00
00
10
ENDCHAR
STARTCHAR 1E6E
ENCODING 7790
SWIDTH 473 0
DWIDTH 9 0
BBX 9 17 0 -3
BITMAP
FF80
0800
0800
0800
0800
0800
0800
0800
0800
0800
0800
0800
0800
0800
0000
0000
3E00
ENDCHAR
STARTCHAR 1E6F
ENCODING 7791
SWIDTH 315 0
DWIDTH 6 0
BBX 6 17 0 -3
BITMAP
20
20
20
20
F8
20
20
20
20
20
20
20
20
1C
00
00
3C
ENDCHAR
STARTCHAR 1E78
ENCODING 7800
SWIDTH 578 0
DWIDTH 11 0
BBX 9 20 1 0
BITMAP
0400
0400
1800
2E00
0000
0000
8080
8080
8080
8080
8080
8080
8080
8080
8080
8080
8080
4080
4100
3E00
ENDCHAR
STARTCHAR 1E79
ENCODING 7801
SWIDTH 473 0
DWIDTH 9 0
BBX 6 18 1 0
BITMAP
08
10
10
20
5C
00
00
00
84
84
84
84
84
84
84
84
84
7C
ENDCHAR
STARTCHAR 1E7A
ENCODING 7802
SWIDTH 578 0
DWIDTH 11 0
BBX 9 19 1 0
BITMAP
3200
0000
3E00
0000
0000
8080
8080
8080
8080
8080
8080
8080
8080
8080
8080
8080
4080
4100
3E00
ENDCHAR
STARTCHAR 1E7B
ENCODING 7803
SWIDTH 473 0
DWIDTH 9 0
BBX 6 17 1 0
BITMAP
48
00
00
7C
00
00
00
84
84
84
84
84
84
84
84
84
7C
ENDCHAR
STARTCHAR 1E80
ENCODING 7808
SWIDTH 894 0
DWIDTH 17 0
BBX 15 18 1 0
BITMAP
0200
0200
0100
0000
8102
8302
8282
8282
4284
4484
4444
4444
2448
2848
2828
2828
1030
1010
ENDCHAR
STARTCHAR 1E81
ENCODING 7809
SWIDTH 736 0
DWIDTH 14 0
BBX 13 15 0 0
BITMAP
0400
0200
0200
0000
8000
4308
4308
4508
4490
2490
2490
2890
2860
1860
1060
ENDCHAR
STARTCHAR 1E82
ENCODING 7810
SWIDTH 894 0
DWIDTH 17 0
BBX 15 18 1 0
BITMAP
0080
0080
0100
0000
8102
8302
8282
8282
4284
4484
4444
4444
2448
2848
2828
2828
1030
1010
ENDCHAR
STARTCHAR 1E83
ENCODING 7811
SWIDTH 736 0
DWIDTH 14 0
BBX 13 15 0 0
BITMAP
0180
0100
0100
0000
8000
4308
4308
4508
4490
2490
2490
2890
2860
1860
1060
ENDCHAR
STARTCHAR 1E84
ENCODING 7812
SWIDTH 894 0
DWIDTH 17 0
BBX 15 17 1 0
BITMAP
0440
0000
0000
8102
8302
8282
8282
4284
4484
4444
4444
2448
2848
2828
2828
1030
1010
ENDCHAR
STARTCHAR 1E85
ENCODING 7813
SWIDTH 736 0
DWIDTH 14 0
BBX 13 14 0 0
BITMAP
0480
0000
0000
8000
4308
4308
4508
4490
2490
2490
2890
2860
1860
1060
ENDCHAR
STARTCHAR 1E8E
ENCODING 7822
SWIDTH 473 0
DWIDTH 9 0
BBX 9 17 0 0
BITMAP
0800
0000
0000
8080
4080
4100
2200
2200
1400
0C00
0800
0800
0800
0800
0800
0800
0800
ENDCHAR
STARTCHAR 1E8F
ENCODING 7823
SWIDTH 421 0
DWIDTH 8 0
BBX 8 18 0 -4
BITMAP
18
00
00
00
81
41
42
42
22
24
24
14
18
18
08
10
10
20
ENDCHAR
STARTCHAR 1E92
ENCODING 7826
SWIDTH 473 0
DWIDTH 9 0
BBX 8 17 1 -3
BITMAP
FE
02
04
04
08
08
10
10
20
20
40
40
80
FF
00
00
10
ENDCHAR
STARTCHAR 1E93
ENCODING 7827
SWIDTH 368 0
DWIDTH 7 0
BBX 6 13 1 -3
BITMAP
F8
08
10
10
20
20
40
40
80
FC
00
00
20
ENDCHAR
STARTCHAR 1E97
ENCODING 7831
SWIDTH 315 0
DWIDTH 6 0
BBX 6 17 0 0
BITMAP
90
00
00
20
20
20
20
F8
20
20
20
20
20
20
20
20
1C
ENDCHAR
STARTCHAR 1E9E
ENCODING 7838
SWIDTH 578 0
DWIDTH 11 0
BBX 9 14 1 0
BITMAP
3F00
4100
8100
8200
8400
8800
8E00
9100
8080
8080
8080
8080
8080
9F00
ENDCHAR
STARTCHAR 1EA0
ENCODING 7840
SWIDTH 578 0
DWIDTH 11 0
BBX 10 17 0 -3
BITMAP
0400
0C00
0A00
0A00
1200
1100
1100
2100
3F80
2080
4080
4040
4040
8040
0000
0000
0400
ENDCHAR
STARTCHAR 1EA1
ENCODING 7841
SWIDTH 421 0
DWIDTH 8 0
BBX 6 13 1 -3
BITMAP
F8
04
04
04
3C
C4
84
84
84
7C
00
00
30
ENDCHAR
STARTCHAR 1EA2
ENCODING 7842
SWIDTH 578 0
DWIDTH 11 0
BBX 10 18 0 0
BITMAP
0E00
0200
0400
0000
0400
0C00
0A00
0A00
1200
1100
1100
2100
3F80
2080
4080
4040
4040
8040
ENDCHAR
STARTCHAR 1EA3
ENCODING 7843
SWIDTH 421 0
DWIDTH 8 0
BBX 6 15 1 0
BITMAP
38
10
10
00
30
C8
04
04
04
3C
C4
84
84
84
7C
ENDCHAR
STARTCHAR 1EA4
ENCODING 7844
SWIDTH 578 0
DWIDTH 11 0
BBX 10 20 0 0
BITMAP
0080
0080
0500
0A00
1100
0000
0400
0C00
0A00
0A00
1200
1100
1100
2100
3F80
2080
4080
4040
4040
8040
ENDCHAR
STARTCHAR 1EA5
ENCODING 7845
SWIDTH 421 0
DWIDTH 8 0
BBX 7 18 1 0
BITMAP
02
04
04
30
50
48
00
30
C8
04
04
04
3C
C4
84
84
84
7C
ENDCHAR
STARTCHAR 1EA6
ENCODING 7846
SWIDTH 578 0
DWIDTH 11 0
BBX 10 20 0 0
BITMAP
0200
0200
0500
0A00
1100
0000
0400
0C00
0A00
0A00
1200
1100
1100
2100
3F80
2080
4080
4040
4040
8040
ENDCHAR
STARTCHAR 1EA7
ENCODING 7847
SWIDTH 421 0
DWIDTH 8 0
BBX 6 18 1 0
BITMAP
10
08
08
30
48
48
00
30
C8
04
04
04
3C
C4
84
84
84
7C
ENDCHAR
STARTCHAR 1EA8
ENCODING 7848
SWIDTH 578 0
DWIDTH 11 0
BBX 10 20 0 0
BITMAP
0300
0080
0500
0A00
1100
0000
0400
0C00
0A00
0A00
1200
1100
1100
2100
3F80
2080
4080
4040
4040
8040
ENDCHAR
STARTCHAR 1EA9
ENCODING 7849
SWIDTH 421 0
DWIDTH 8 0
BBX 7 18 1 0
BITMAP
1C
02
04
30
50
48
00
30
C8
04
04
04
3C
C4
84
84
84
7C
ENDCHAR
STARTCHAR 1EAA
ENCODING 7850
SWIDTH 578 0
DWIDTH 11 0
BBX 10 20 0 0
BITMAP
0900
1600
0400
0A00
1100
0000
0400
0C00
0A00
0A00
1200
1100
1100
2100
3F80
2080
4080
4040
4040
8040
ENDCHAR
STARTCHAR 1EAB
ENCODING 7851
SWIDTH 421 0
DWIDTH 8 0
BBX 6 17 1 0
BITMAP
F8
00
30
50
48
00
30
C8
04
04
04
3C
C4
84
84
84
7C
ENDCHAR
STARTCHAR 1EAC
ENCODING 7852
SWIDTH 578 0
DWIDTH 11 0
BBX 10 21 0 -3
BITMAP
0400
0A00
1100
0000
0400
0C00
0A00
0A00
1200
1100
1100
2100
3F80
2080
4080
4040
4040
8040
0000
0000
0400
ENDCHAR
STARTCHAR 1EAD
ENCODING 7853
SWIDTH 421 0
DWIDTH 8 0
BBX 6 18 1 -3
BITMAP
30
50
48
00
30
C8
04
04
04
3C
C4
84
84
84
7C
00
00
30
ENDCHAR
STARTCHAR 1EAE
ENCODING 7854
SWIDTH 578 0
DWIDTH 11 0
BBX 10 20 0 0
BITMAP
0200
0400
1100
1100
0E00
0000
0400
0C00
0A00
0A00
1200
1100
1100
2100
3F80
2080
4080
4040
4040
8040
ENDCHAR
STARTCHAR 1EAF
ENCODING 7855
SWIDTH 421 0
DWIDTH 8 0
BBX 6 18 1 0
BITMAP
08
10
10
48
48
30
00
30
C8
04
04
04
3C
C4
84
84
84
7C
ENDCHAR
STARTCHAR 1EB0
ENCODING 7856
SWIDTH 578 0
DWIDTH 11 0
BBX 10 20 0 0
BITMAP
0800
0800
1500
1100
0E00
0000
0400
0C00
0A00
0A00
1200
1100
1100
2100
3F80
2080
4080
4040
4040
8040
ENDCHAR
STARTCHAR 1EB1
ENCODING 7857
SWIDTH 421 0
DWIDTH 8 0
BBX 6 18 1 0
BITMAP
40
20
20
48
48
30
00
30
C8
04
04
04
3C
C4
84
84
84
7C
ENDCHAR
STARTCHAR 1EB2
ENCODING 7858
SWIDTH 578 0
DWIDTH 11 0
BBX 10 20 0 0
BITMAP
0E00
0200
1500
1100
0E00
0000
0400
0C00
0A00
0A00
1200
1100
1100
2100
3F80
2080
4080
4040
4040
8040
ENDCHAR
STARTCHAR 1EB3
ENCODING 7859
SWIDTH 421 0
DWIDTH 8 0
BBX 6 18 1 0
BITMAP
70
08
10
48
48
30
00
30
C8
04
04
04
3C
C4
84
84
84
7C
ENDCHAR
STARTCHAR 1EB4
ENCODING 7860
SWIDTH 578 0
DWIDTH 11 0
BBX 10 20 0 0
BITMAP
0900
1600
1100
1100
0E00
0000
0400
0C00
0A00
0A00
1200
1100
1100
2100
3F80
2080
4080
4040
4040
8040
ENDCHAR
STARTCHAR 1EB5
ENCODING 7861
SWIDTH 421 0
DWIDTH 8 0
BBX 6 17 1 0
BITMAP
F8
00
48
48
30
00
30
C8
04
04
04
3C
C4
84
84
84
7C
ENDCHAR
STARTCHAR 1EB6
ENCODING 7862
SWIDTH 578 0
DWIDTH 11 0
BBX 10 21 0 -3
BITMAP
1100
1100
0E00
0000
0400
0C00
0A00
0A00
1200
1100
1100
2100
3F80
2080
4080
4040
4040
8040
0000
0000
0400
ENDCHAR
STARTCHAR 1EB7
ENCODING 7863
SWIDTH 421 0
DWIDTH 8 0
BBX 6 18 1 -3
BITMAP
48
48
30
00
30
C8
04
04
04
3C
C4
84
84
84
7C
00
00
30
ENDCHAR
STARTCHAR 1EB8
ENCODING 7864
SWIDTH 473 0
DWIDTH 9 0
BBX 7 17 2 -3
BITMAP
FE
80
80
80
80
80
FC
80
80
80
80
80
80
FE
00
00
10
ENDCHAR
STARTCHAR 1EB9
ENCODING 7865
SWIDTH 421 0
DWIDTH 8 0
BBX 6 13 1 -3
BITMAP
78
84
84
84
FC
80
80
80
80
7C
00
00
10
ENDCHAR
STARTCHAR 1EBA
ENCODING 7866
SWIDTH 473 0
DWIDTH 9 0
BBX 7 18 2 0
BITMAP
38
08
10
00
FE
80
80
80
80
80
FC
80
80
80
80
80
80
FE
ENDCHAR
STARTCHAR 1EBB
ENCODING 7867
SWIDTH 421 0
DWIDTH 8 0
BBX 6 15 1 0
BITMAP
38
08
10
00
30
48
84
84
84
FC
80
80
80
80
7C
ENDCHAR
STARTCHAR 1EBC
ENCODING 7868
SWIDTH 473 0
DWIDTH 9 0
BBX 7 17 2 0
BITMAP
FC
00
00
FE
80
80
80
80
80
FC
80
80
80
80
80
80
FE
ENDCHAR
STARTCHAR 1EBD
ENCODING 7869
SWIDTH 421 0
DWIDTH 8 0
BBX 6 14 1 0
BITMAP
FC
00
00
30
48
84
84
84
FC
80
80
80
80
7C
ENDCHAR
STARTCHAR 1EBE
ENCODING 7870
SWIDTH 473 0
DWIDTH 9 0
BBX 7 20 2 0
BITMAP
02
04
14
28
44
00
FE
80
80
80
80
80
FC
80
80
80
80
80
80
FE
ENDCHAR
STARTCHAR 1EBF
ENCODING 7871
SWIDTH 421 0
DWIDTH 8 0
BBX 7 18 1 0
BITMAP
02
04
04
30
28
48
00
30
48
84
84
84
FC
80
80
80
80
7C
ENDCHAR
STARTCHAR 1EC0
ENCODING 7872
SWIDTH 473 0
DWIDTH 9 0
BBX 7 20 2 0
BITMAP
08
08
14
28
44
00
FE
80
80
80
80
80
FC
80
80
80
80
80
80
FE
ENDCHAR
STARTCHAR 1EC1
ENCODING 7873
SWIDTH 421 0
DWIDTH 8 0
BBX 6 18 1 0
BITMAP
08
08
04
30
28
48
00
30
48
84
84
84
FC
80
80
80
80
7C
ENDCHAR
STARTCHAR 1EC2
ENCODING 7874
SWIDTH 473 0
DWIDTH 9 0
BBX 7 20 2 0
BITMAP
0C
02
14
28
44
00
FE
80
80
80
80
80
FC
80
80
80
80
80
80
FE
ENDCHAR
STARTCHAR 1EC3
ENCODING 7875
SWIDTH 421 0
DWIDTH 8 0
BBX 7 18 1 0
BITMAP
0C
02
04
30
28
48
00
30
48
84
84
84
FC
80
80
80
80
7C
ENDCHAR
STARTCHAR 1EC4
ENCODING 7876
SWIDTH 473 0
DWIDTH 9 0
BBX 7 20 2 0
BITMAP
24
58
10
28
44
00
FE
80
80
80
80
80
FC
80
80
80
80
80
80
FE
ENDCHAR
STARTCHAR 1EC5
ENCODING 7877
SWIDTH 421 0
DWIDTH 8 0
BBX 6 17 1 0
BITMAP
7C
00
30
28
48
00
30
48
84
84
84
FC
80
80
80
80
7C
ENDCHAR
STARTCHAR 1EC6
ENCODING 7878
SWIDTH 473 0
DWIDTH 9 0
BBX 7 21 2 -3
BITMAP
10
28
44
00
FE
80
80
80
80
80
FC
80
80
80
80
80
80
FE
00
00
10
ENDCHAR
STARTCHAR 1EC7
ENCODING 7879
SWIDTH 421 0
DWIDTH 8 0
BBX 6 18 1 -3
BITMAP
30
28
48
00
30
48
84
84
84
FC
80
80
80
80
7C
00
00
10
ENDCHAR
STARTCHAR 1EC8
ENCODING 7880
SWIDTH 210 0
DWIDTH 4 0
BBX 4 18 0 0
BITMAP
E0
30
40
00
40
40
40
40
40
40
40
40
40
40
40
40
40
40
ENDCHAR
STARTCHAR 1EC9
ENCODING 7881
SWIDTH 157 0
DWIDTH 3 0
BBX 3 15 0 0
BITMAP
E0
20
40
00
00
40
40
40
40
40
40
40
40
40
40
ENDCHAR
STARTCHAR 1ECA
ENCODING 7882
SWIDTH 210 0
DWIDTH 4 0
BBX 1 17 1 -3
BITMAP
80
80
80
80
80
80
80
80
80
80
80
80
80
80
00
00
80
ENDCHAR
STARTCHAR 1ECB
ENCODING 7883
SWIDTH 157 0
DWIDTH 3 0
BBX 1 17 1 -3
BITMAP
80
00
00
00
80
80
80
80
80
80
80
80
80
80
00
00
80
ENDCHAR
STARTCHAR 1ECC
ENCODING 7884
SWIDTH 578 0
DWIDTH 11 0
BBX 9 17 1 -3
BITMAP
3E00
4100
8080
8080
8080
8080
8080
8080
8080
8080
8080
8080
4100
3E00
0000
0000
0800
ENDCHAR
STARTCHAR 1ECD
ENCODING 7885
SWIDTH 473 0
DWIDTH 9 0
BBX 7 13 1 -3
BITMAP
7C
84
82
82
82
82
82
82
84
78
00
00
10
ENDCHAR
STARTCHAR 1ECE
ENCODING 7886
SWIDTH 578 0
DWIDTH 11 0
BBX 9 18 1 0
BITMAP
1C00
0400
0800
0000
3E00
4100
8080
8080
8080
8080
8080
8080
8080
8080
8080
8080
4100
3E00
ENDCHAR
STARTCHAR 1ECF
ENCODING 7887
SWIDTH 473 0
DWIDTH 9 0
BBX 7 15 1 0
BITMAP
38
08
10
00
10
6C
84
82
82
82
82
82
82
84
78
ENDCHAR
STARTCHAR 1ED0
ENCODING 7888
SWIDTH 578 0
DWIDTH 11 0
BBX 9 20 1 0
BITMAP
0100
0100
0A00
1400
2200
0000
3E00
4100
8080
8080
8080
8080
8080
8080
8080
8080
8080
8080
4100
3E00
ENDCHAR
STARTCHAR 1ED1
ENCODING 7889
SWIDTH 473 0
DWIDTH 9 0
BBX 7 18 1 0
BITMAP
02
04
04
30
28
48
00
10
6C
84
82
82
82
82
82
82
84
78
ENDCHAR
STARTCHAR 1ED2
ENCODING 7890
SWIDTH 578 0
DWIDTH 11 0
BBX 9 20 1 0
BITMAP
0400
0200
0A00
1400
2200
0000
3E00
4100
8080
8080
8080
8080
8080
8080
8080
8080
8080
8080
4100
3E00
ENDCHAR
STARTCHAR 1ED3
ENCODING 7891
SWIDTH 473 0
DWIDTH 9 0
BBX 7 18 1 0
BITMAP
08
08
04
30
28
48
00
10
6C
84
82
82
82
82
82
82
84
78
ENDCHAR
STARTCHAR 1ED4
ENCODING 7892
SWIDTH 578 0
DWIDTH 11 0
BBX 9 20 1 0
BITMAP
0600
0100
0A00
1400
2200
0000
3E00
4100
8080
8080
8080
8080
8080
8080
8080
8080
8080
8080
4100
3E00
ENDCHAR
STARTCHAR 1ED5
ENCODING 7893
SWIDTH 473 0
DWIDTH 9 0
BBX 7 18 1 0
BITMAP
0E
02
04
30
28
48
00
10
6C
84
82
82
82
82
82
82
84
78
ENDCHAR
STARTCHAR 1ED6
ENCODING 7894
SWIDTH 578 0
DWIDTH 11 0
BBX 9 20 1 0
BITMAP
1A00
2400
0800
1400
2200
0000
3E00
4100
8080
8080
8080
8080
8080
8080
8080
8080
8080
8080
4100
3E00
ENDCHAR
STARTCHAR 1ED7
ENCODING 7895
SWIDTH 473 0
DWIDTH 9 0
BBX 7 17 1 0
BITMAP
7C
00
30
28
48
00
10
6C
84
82
82
82
82
82
82
84
78
ENDCHAR
STARTCHAR 1ED8
ENCODING 7896
SWIDTH 578 0
DWIDTH 11 0
BBX 9 21 1 -3
BITMAP
0800
1400
2200
0000
3E00
4100
8080
8080
8080
8080
8080
8080
8080
8080
8080
8080
4100
3E00
0000
0000
0800
ENDCHAR
STARTCHAR 1ED9
ENCODING 7897
SWIDTH 473 0
DWIDTH 9 0
BBX 7 18 1 -3
BITMAP
30
28
48
00
10
6C
84
82
82
82
82
82
82
84
78
00
00
10
ENDCHAR
STARTCHAR 1EDA
ENCODING 7898
SWIDTH 578 0
DWIDTH 11 0
BBX 9 18 1 0
BITMAP
0400
0480
0880
0080
3F00
4100
8080
8080
8080
8080
8080
8080
8080
8080
8080
8080
4100
3E00
ENDCHAR
STARTCHAR 1EDB
ENCODING 7899
SWIDTH 473 0
DWIDTH 9 0
BBX 7 15 1 0
BITMAP
08
10
12
02
12
6C
84
82
82
82
82
82
82
84
78
ENDCHAR
STARTCHAR 1EDC
ENCODING 7900
SWIDTH 578 0
DWIDTH 11 0
BBX 9 18 1 0
BITMAP
1000
1080
0880
0080
3F00
4100
8080
8080
8080
8080
8080
8080
8080
8080
8080
8080
4100
3E00
ENDCHAR
STARTCHAR 1EDD
ENCODING 7901
SWIDTH 473 0
DWIDTH 9 0
BBX 7 15 1 0
BITMAP
60
20
12
02
12
6C
84
82
82
82
82
82
82
84
78
ENDCHAR
STARTCHAR 1EDE
ENCODING 7902
SWIDTH 578 0
DWIDTH 11 0
BBX 9 18 1 0
BITMAP
1C00
0480
0880
0080
3F00
4100
8080
8080
8080
8080
8080
8080
8080
8080
8080
8080
4100
3E00
ENDCHAR
STARTCHAR 1EDF
ENCODING 7903
SWIDTH 473 0
DWIDTH 9 0
BBX 7 15 1 0
BITMAP
38
08
12
02
12
6C
84
82
82
82
82
82
82
84
78
ENDCHAR
STARTCHAR 1EE0
ENCODING 7904
SWIDTH 578 0
DWIDTH 11 0
BBX 9 17 1 0
BITMAP
3E80
0080
0080
3F00
4100
8080
8080
8080
8080
8080
8080
8080
8080
8080
8080
4100
3E00
ENDCHAR
STARTCHAR 1EE1
ENCODING 7905
SWIDTH 473 0
DWIDTH 9 0
BBX 7 14 1 0
BITMAP
7C
02
02
12
6C
84
82
82
82
82
82
82
84
78
ENDCHAR
STARTCHAR 1EE2
ENCODING 7906
SWIDTH 578 0
DWIDTH 11 0
BBX 9 20 1 -3
BITMAP
0080
0080
0080
3F00
4100
8080
8080
8080
8080
8080
8080
8080
8080
8080
8080
4100
3E00
0000
0000
0800
ENDCHAR
STARTCHAR 1EE3
ENCODING 7907
SWIDTH 473 0
DWIDTH 9 0
BBX 7 16 1 -3
BITMAP
02
02
12
6C
84
82
82
82
82
82
82
84
78
00
00
10
ENDCHAR
STARTCHAR 1EE4
ENCODING 7908
SWIDTH 578 0
DWIDTH 11 0
BBX 9 17 1 -3
BITMAP
8080
8080
8080
8080
8080
8080
8080
8080
8080
8080
8080
4080
4100
3E00
0000
0000
0800
ENDCHAR
STARTCHAR 1EE5
ENCODING 7909
SWIDTH 473 0
DWIDTH 9 0
BBX 6 13 1 -3
BITMAP
84
84
84
84
84
84
84
84
84
7C
00
00
10
ENDCHAR
STARTCHAR 1EE6
ENCODING 7910
SWIDTH 578 0
DWIDTH 11 0
BBX 9 18 1 0
BITMAP
1C00
0400
0800
0000
8080
8080
8080
8080
8080
8080
8080
8080
8080
8080
8080
4080
4100
3E00
ENDCHAR
STARTCHAR 1EE7
ENCODING 7911
SWIDTH 473 0
DWIDTH 9 0
BBX 6 15 1 0
BITMAP
38
08
10
00
00
84
84
84
84
84
84
84
84
84
7C
ENDCHAR
STARTCHAR 1EE8
ENCODING 7912
SWIDTH 578 0
DWIDTH 11 0
BBX 11 18 1 0
BITMAP
0400
0420
0820
0020
80C0
8080
8080
8080
8080
8080
8080
8080
8080
8080
8080
4080
4100
3E00
ENDCHAR
STARTCHAR 1EE9
ENCODING 7913
SWIDTH 473 0
DWIDTH 9 0
BBX 8 15 1 0
BITMAP
08
10
11
01
01
82
82
82
82
82
82
82
82
84
7A
ENDCHAR
STARTCHAR 1EEA
ENCODING 7914
SWIDTH 578 0
DWIDTH 11 0
BBX 11 18 1 0
BITMAP
1000
0820
0820
0020
80C0
8080
8080
8080
8080
8080
8080
8080
8080
8080
8080
4080
4100
3E00
ENDCHAR
STARTCHAR 1EEB
ENCODING 7915
SWIDTH 473 0
DWIDTH 9 0
BBX 8 15 1 0
BITMAP
60
20
11
01
01
82
82
82
82
82
82
82
82
84
7A
ENDCHAR
STARTCHAR 1EEC
ENCODING 7916
SWIDTH 578 0
DWIDTH 11 0
BBX 11 18 1 0
BITMAP
1C00
0420
0820
0020
80C0
8080
8080
8080
8080
8080
8080
8080
8080
8080
8080
4080
4100
3E00
ENDCHAR
STARTCHAR 1EED
ENCODING 7917
SWIDTH 473 0
DWIDTH 9 0
BBX 8 15 1 0
BITMAP
38
08
11
01
01
82
82
82
82
82
82
82
82
84
7A
ENDCHAR
STARTCHAR 1EEE
ENCODING 7918
SWIDTH 578 0
DWIDTH 11 0
BBX 11 17 1 0
BITMAP
3E20
0020
0020
80C0
8080
8080
8080
8080
8080
8080
8080
8080
8080
8080
4080
4100
3E00
ENDCHAR
STARTCHAR 1EEF
ENCODING 7919
SWIDTH 473 0
DWIDTH 9 0
BBX 8 14 1 0
BITMAP
7C
01
01
01
82
82
82
82
82
82
82
82
84
7A
ENDCHAR
STARTCHAR 1EF0
ENCODING 7920
SWIDTH 578 0
DWIDTH 11 0
BBX 11 20 1 -3
BITMAP
0020
0020
0020
80C0
8080
8080
8080
8080
8080
8080
8080
8080
8080
8080
4080
4100
3E00
0000
0000
0800
ENDCHAR
STARTCHAR 1EF1
ENCODING 7921
SWIDTH 473 0
DWIDTH 9 0
BBX 8 16 1 -3
BITMAP
01
01
01
82
82
82
82
82
82
82
82
84
7A
00
00
10
ENDCHAR
STARTCHAR 1EF2
ENCODING 7922
SWIDTH 473 0
DWIDTH 9 0
BBX 9 18 0 0
BITMAP
1000
0800
0800
0000
8080
4080
4100
2200
2200
1400
0C00
0800
0800
0800
0800
0800
0800
0800
ENDCHAR
STARTCHAR 1EF3
ENCODING 7923
SWIDTH 421 0
DWIDTH 8 0
BBX 8 19 0 -4
BITMAP
20
10
10
00
00
81
41
42
42
22
24
24
14
18
18
08
10
10
20
ENDCHAR
STARTCHAR 1EF4
ENCODING 7924
SWIDTH 473 0
DWIDTH 9 0
BBX 9 17 0 -3
BITMAP
8080
4080
4100
2200
2200
1400
0C00
0800
0800
0800
0800
0800
0800
0800
0000
0000
0800
ENDCHAR
STARTCHAR 1EF5
ENCODING 7925
SWIDTH 421 0
DWIDTH 8 0
BBX 8 14 0 -4
BITMAP
81
41
42
42
22
24
24
14
18
18
08
10
16
20
ENDCHAR
STARTCHAR 1EF6
ENCODING 7926
SWIDTH 473 0
DWIDTH 9 0
BBX 9 18 0 0
BITMAP
1C00
0400
0800
0000
8080
4080
4100
2200
2200
1400
0C00
0800
0800
0800
0800
0800
0800
0800
ENDCHAR
STARTCHAR 1EF7
ENCODING 7927
SWIDTH 421 0
DWIDTH 8 0
BBX 8 19 0 -4
BITMAP
1C
04
08
00
00
81
41
42
42
22
24
24
14
18
18
08
10
10
20
ENDCHAR
STARTCHAR 1EF8
ENCODING 7928
SWIDTH 473 0
DWIDTH 9 0
BBX 9 17 0 0
BITMAP
3E00
0000
0000
8080
4080
4100
2200
2200
1400
0C00
0800
0800
0800
0800
0800
0800
0800
ENDCHAR
STARTCHAR 1EF9
ENCODING 7929
SWIDTH 421 0
DWIDTH 8 0
BBX 8 18 0 -4
BITMAP
7C
00
00
00
81
41
42
42
22
24
24
14
18
18
08
10
10
20
ENDCHAR
STARTCHAR 2007
ENCODING 8199
SWIDTH 526 0
DWIDTH 10 0
BBX 0 0 0 0
BITMAP
ENDCHAR
STARTCHAR 2008
ENCODING 8200
SWIDTH 157 0
DWIDTH 3 0
BBX 0 0 0 0
BITMAP
ENDCHAR
STARTCHAR 2009
ENCODING 8201
SWIDTH 210 0
DWIDTH 4 0
BBX 0 0 0 0
BITMAP
ENDCHAR
STARTCHAR 200A
ENCODING 8202
SWIDTH 52 0
DWIDTH 1 0
BBX 0 0 0 0
BITMAP
ENDCHAR
STARTCHAR 200B
ENCODING 8203
SWIDTH 0 0
DWIDTH 0 0
BBX 0 0 0 0
BITMAP
ENDCHAR
STARTCHAR 2010
ENCODING 8208
SWIDTH 315 0
DWIDTH 6 0
BBX 4 1 1 5
BITMAP
F0
ENDCHAR
STARTCHAR 2012
ENCODING 8210
SWIDTH 526 0
DWIDTH 10 0
BBX 7 1 1 5
BITMAP
FE
ENDCHAR
STARTCHAR 2013
ENCODING 8211
SWIDTH 421 0
DWIDTH 8 0
BBX 8 1 0 5
BITMAP
FF
ENDCHAR
STARTCHAR 2014
ENCODING 8212
SWIDTH 789 0
DWIDTH 15 0
BBX 15 1 0 5
BITMAP
FFFE
ENDCHAR
STARTCHAR 2015
ENCODING 8213
SWIDTH 789 0
DWIDTH 15 0
BBX 15 1 0 5
BITMAP
FFFE
ENDCHAR
STARTCHAR 2018
ENCODING 8216
SWIDTH 157 0
DWIDTH 3 0
BBX 1 4 1 11
BITMAP
80
80
80
80
ENDCHAR
STARTCHAR 2019
ENCODING 8217
SWIDTH 157 0
DWIDTH 3 0
BBX 1 4 1 11
BITMAP
80
80
80
80
ENDCHAR
STARTCHAR 201A
ENCODING 8218
SWIDTH 157 0
DWIDTH 3 0
BBX 1 4 1 -3
BITMAP
80
80
80
80
ENDCHAR
STARTCHAR 201C
ENCODING 8220
SWIDTH 315 0
DWIDTH 6 0
BBX 4 4 1 11
BITMAP
90
A0
A0
90
ENDCHAR
STARTCHAR 201D
ENCODING 8221
SWIDTH 315 0
DWIDTH 6 0
BBX 4 4 1 11
BITMAP
B0
90
90
A0
ENDCHAR
STARTCHAR 201E
ENCODING 8222
SWIDTH 315 0
DWIDTH 6 0
BBX 4 4 1 -3
BITMAP
B0
90
90
A0
ENDCHAR
STARTCHAR 2020
ENCODING 8224
SWIDTH 421 0
DWIDTH 8 0
BBX 7 13 1 2
BITMAP
10
10
10
FE
10
10
10
10
10
10
10
10
10
ENDCHAR
STARTCHAR 2021
ENCODING 8225
SWIDTH 421 0
DWIDTH 8 0
BBX 7 13 1 2
BITMAP
10
10
10
FE
10
10
10
10
10
10
FE
10
10
ENDCHAR
STARTCHAR 2022
ENCODING 8226
SWIDTH 315 0
DWIDTH 6 0
BBX 4 4 1 3
BITMAP
70
F0
F0
60
ENDCHAR
STARTCHAR 2026
ENCODING 8230
SWIDTH 526 0
DWIDTH 10 0
BBX 8 1 1 0
BITMAP
99
ENDCHAR
STARTCHAR 2030
ENCODING 8240
SWIDTH 1105 0
DWIDTH 21 0
BBX 19 14 1 0
BITMAP
708000
888000
890000
890000
890000
8A6180
8A9260
4A8A20
350A20
050A20
050A20
090A20
088A20
08F1C0
ENDCHAR
STARTCHAR 2032
ENCODING 8242
SWIDTH 157 0
DWIDTH 3 0
BBX 1 6 1 9
BITMAP
80
80
80
80
80
80
ENDCHAR
STARTCHAR 2033
ENCODING 8243
SWIDTH 315 0
DWIDTH 6 0
BBX 3 6 1 9
BITMAP
A0
A0
A0
A0
A0
A0
ENDCHAR
STARTCHAR 2039
ENCODING 8249
SWIDTH 210 0
DWIDTH 4 0
BBX 2 8 1 1
BITMAP
40
40
80
80
80
40
40
40
ENDCHAR
STARTCHAR 203A
ENCODING 8250
SWIDTH 210 0
DWIDTH 4 0
BBX 2 8 1 1
BITMAP
80
80
40
40
40
80
80
80
ENDCHAR
STARTCHAR 2044
ENCODING 8260
SWIDTH 105 0
DWIDTH 2 0
BBX 8 16 -3 -1
BITMAP
03
02
02
04
04
08
08
08
10
10
20
20
20
40
40
80
ENDCHAR
STARTCHAR 2070
ENCODING 8304
SWIDTH 315 0
DWIDTH 6 0
BBX 5 9 1 6
BITMAP
F0
88
88
88
88
88
88
88
70
ENDCHAR
STARTCHAR 2074
ENCODING 8308
SWIDTH 315 0
DWIDTH 6 0
BBX 6 9 0 6
BITMAP
10
10
20
28
48
48
FC
08
08
ENDCHAR
STARTCHAR 2075
ENCODING 8309
SWIDTH 315 0
DWIDTH 6 0
BBX 5 9 1 6
BITMAP
F0
80
80
80
70
08
08
08
F0
ENDCHAR
STARTCHAR 2076
ENCODING 8310
SWIDTH 315 0
DWIDTH 6 0
BBX 5 9 1 6
BITMAP
78
80
80
80
F0
88
88
88
70
ENDCHAR
STARTCHAR 2077
ENCODING 8311
SWIDTH 315 0
DWIDTH 6 0
BBX 5 9 1 6
BITMAP
F8
10
10
10
20
20
40
40
40
ENDCHAR
STARTCHAR 2078
ENCODING 8312
SWIDTH 315 0
DWIDTH 6 0
BBX 5 9 1 6
BITMAP
F0
88
88
90
70
88
88
88
F0
ENDCHAR
STARTCHAR 2079
ENCODING 8313
SWIDTH 315 0
DWIDTH 6 0
BBX 6 9 0 6
BITMAP
78
88
84
84
7C
04
04
08
F0
ENDCHAR
STARTCHAR 2080
ENCODING 8320
SWIDTH 315 0
DWIDTH 6 0
BBX 5 9 1 -1
BITMAP
F0
88
88
88
88
88
88
88
F0
ENDCHAR
STARTCHAR 2081
ENCODING 8321
SWIDTH 315 0
DWIDTH 6 0
BBX 5 9 1 -1
BITMAP
60
A0
20
20
20
20
20
20
F8
ENDCHAR
STARTCHAR 2082
ENCODING 8322
SWIDTH 315 0
DWIDTH 6 0
BBX 4 9 1 -1
BITMAP
F0
10
10
10
10
20
40
40
F0
ENDCHAR
STARTCHAR 2083
ENCODING 8323
SWIDTH 315 0
DWIDTH 6 0
BBX 5 9 1 -1
BITMAP
F0
08
08
10
60
10
08
08
F0
ENDCHAR
STARTCHAR 2084
ENCODING 8324
SWIDTH 315 0
DWIDTH 6 0
BBX 6 9 0 -1
BITMAP
10
10
20
28
48
48
FC
08
08
ENDCHAR
STARTCHAR 2085
ENCODING 8325
SWIDTH 315 0
DWIDTH 6 0
BBX 5 9 1 -1
BITMAP
F0
80
80
80
70
08
08
08
F0
ENDCHAR
STARTCHAR 2086
ENCODING 8326
SWIDTH 315 0
DWIDTH 6 0
BBX 5 9 1 -1
BITMAP
78
80
80
80
F0
88
88
88
78
ENDCHAR
STARTCHAR 2087
ENCODING 8327
SWIDTH 315 0
DWIDTH 6 0
BBX 5 9 1 -1
BITMAP
F8
10
10
10
20
20
40
40
40
ENDCHAR
STARTCHAR 2088
ENCODING 8328
SWIDTH 315 0
DWIDTH 6 0
BBX 5 9 1 -1
BITMAP
F0
88
88
90
60
98
88
88
F0
ENDCHAR
STARTCHAR 2089
ENCODING 8329
SWIDTH 315 0
DWIDTH 6 0
BBX 6 9 0 -1
BITMAP
78
88
84
84
7C
04
04
08
70
ENDCHAR
STARTCHAR 20A1
ENCODING 8353
SWIDTH 473 0
DWIDTH 9 0
BBX 8 18 1 -2
BITMAP
05
0A
35
40
80
80
80
80
80
80
80
80
80
40
40
7F
A0
A0
ENDCHAR
STARTCHAR 20A3
ENCODING 8355
SWIDTH 526 0
DWIDTH 10 0
BBX 9 14 1 0
BITMAP
3F80
2000
2000
2000
2000
2000
3F00
2000
2000
2000
F800
2000
2000
2000
ENDCHAR
STARTCHAR 20A4
ENCODING 8356
SWIDTH 526 0
DWIDTH 10 0
BBX 8 14 1 0
BITMAP
1F
20
20
20
20
FE
20
20
FE
20
20
20
20
FF
ENDCHAR
STARTCHAR 20A6
ENCODING 8358
SWIDTH 736 0
DWIDTH 14 0
BBX 12 14 1 0
BITMAP
2020
2020
3020
2820
2820
C430
2420
2220
C230
2120
20A0
20A0
2040
2040
ENDCHAR
STARTCHAR 20A7
ENCODING 8359
SWIDTH 1105 0
DWIDTH 21 0
BBX 18 14 2 0
BITMAP
F88000
848000
828000
828180
83F640
828400
828800
848400
F88300
8080C0
808040
808040
804040
807780
ENDCHAR
STARTCHAR 20A9
ENCODING 8361
SWIDTH 947 0
DWIDTH 18 0
BBX 16 14 1 0
BITMAP
8101
8181
8182
4282
4242
C243
4244
2444
E427
2424
1428
1828
1818
1810
ENDCHAR
STARTCHAR 20AB
ENCODING 8363
SWIDTH 473 0
DWIDTH 9 0
BBX 8 17 1 -2
BITMAP
04
04
1F
04
1C
64
84
84
84
84
84
84
84
84
7A
00
FC
ENDCHAR
STARTCHAR 20AC
ENCODING 8364
SWIDTH 526 0
DWIDTH 10 0
BBX 9 14 1 0
BITMAP
1F80
2000
2000
4000
4000
FF00
4000
4000
FF00
4000
4000
2000
2000
1F80
ENDCHAR
STARTCHAR 20AD
ENCODING 8365
SWIDTH 578 0
DWIDTH 11 0
BBX 10 14 1 0
BITMAP
2040
2080
2100
2200
2200
2400
FF80
2800
2400
2200
2100
2080
2080
2040
ENDCHAR
STARTCHAR 20B1
ENCODING 8369
SWIDTH 631 0
DWIDTH 12 0
BBX 11 14 1 0
BITMAP
3E00
2100
C0E0
2080
2080
2080
E0E0
2100
3E00
2000
2000
2000
2000
2000
ENDCHAR
STARTCHAR 20B2
ENCODING 8370
SWIDTH 578 0
DWIDTH 11 0
BBX 8 18 1 -2
BITMAP
04
04
3B
40
40
80
80
80
80
81
81
81
81
41
61
1F
04
04
ENDCHAR
STARTCHAR 20B5
ENCODING 8373
SWIDTH 473 0
DWIDTH 9 0
BBX 8 18 1 -2
BITMAP
08
08
37
40
80
80
80
80
80
80
80
80
80
40
40
37
08
08
ENDCHAR
STARTCHAR 20B9
ENCODING 8377
SWIDTH 526 0
DWIDTH 10 0
BBX 8 14 1 0
BITMAP
FF
04
02
FF
02
02
0C
F0
10
08
08
04
02
01
ENDCHAR
STARTCHAR 20BA
ENCODING 8378
SWIDTH 526 0
DWIDTH 10 0
BBX 8 14 1 0
BITMAP
20
22
2C
30
40
A6
38
40
A0
20
20
20
20
1F
ENDCHAR
STARTCHAR 20BC
ENCODING 8380
SWIDTH 578 0
DWIDTH 11 0
BBX 9 16 1 0
BITMAP
0800
0800
3E00
2900
4900
4880
4880
4880
8880
8880
8880
8080
8080
8080
8080
8080
ENDCHAR
STARTCHAR 20BD
ENCODING 8381
SWIDTH 578 0
DWIDTH 11 0
BBX 9 14 1 0
BITMAP
3F00
2080
2080
2080
2080
2080
2100
FE00
2000
2000
FC00
2000
2000
2000
ENDCHAR
STARTCHAR 20BF
ENCODING 8383
SWIDTH 526 0
DWIDTH 10 0
BBX 8 18 2 -2
BITMAP
28
28
DC
82
82
82
82
82
FC
84
82
81
81
81
82
FC
28
28
ENDCHAR
STARTCHAR 2113
ENCODING 8467
SWIDTH 315 0
DWIDTH 6 0
BBX 6 14 0 0
BITMAP
38
28
28
28
28
30
20
20
40
A0
20
20
20
3C
ENDCHAR
STARTCHAR 2116
ENCODING 8470
SWIDTH 1000 0
DWIDTH 19 0
BBX 16 14 2 0
BITMAP
810E
8111
C121
C121
A121
9121
9111
891B
8904
8500
8500
8300
8100
8100
ENDCHAR
STARTCHAR 2120
ENCODING 8480
SWIDTH 842 0
DWIDTH 16 0
BBX 13 10 1 4
BITMAP
F208
8208
8318
8318
6298
12A8
0AA8
0A48
1208
E000
ENDCHAR
STARTCHAR 2122
ENCODING 8482
SWIDTH 842 0
DWIDTH 16 0
BBX 15 9 0 5
BITMAP
FD02
1182
1186
1146
114A
114A
1132
1112
1102
ENDCHAR
STARTCHAR 2126
ENCODING 8486
SWIDTH 578 0
DWIDTH 11 0
BBX 9 14 1 0
BITMAP
3E00
4100
8080
8080
8080
8080
8080
8080
8080
8080
8080
4100
2200
F780
ENDCHAR
STARTCHAR 212E
ENCODING 8494
SWIDTH 789 0
DWIDTH 15 0
BBX 13 14 1 0
BITMAP
1FC0
2020
4010
4010
C018
C018
FFF8
C000
C000
C000
4008
4010
2020
1FC0
ENDCHAR
STARTCHAR 2153
ENCODING 8531
SWIDTH 789 0
DWIDTH 15 0
BBX 13 16 1 -1
BITMAP
6040
A080
2080
2080
2100
2100
2240
22B0
FA08
0408
0410
0870
0808
0808
1008
11F0
ENDCHAR
STARTCHAR 2154
ENCODING 8532
SWIDTH 789 0
DWIDTH 15 0
BBX 13 16 1 -1
BITMAP
F040
1080
1080
1080
2100
2100
4240
42B0
F208
0408
0410
0870
0808
0808
1008
11F0
ENDCHAR
STARTCHAR 215B
ENCODING 8539
SWIDTH 789 0
DWIDTH 15 0
BBX 13 16 1 -1
BITMAP
6040
A080
2080
2080
2100
2100
2220
22D0
FA88
0488
0488
0870
0888
0888
1088
10F8
ENDCHAR
STARTCHAR 215C
ENCODING 8540
SWIDTH 789 0
DWIDTH 15 0
BBX 13 16 1 -1
BITMAP
F040
0880
1080
1080
7100
0900
0A20
0AD0
F288
0488
0488
0870
0888
0888
1088
10F8
ENDCHAR
STARTCHAR 215D
ENCODING 8541
SWIDTH 789 0
DWIDTH 15 0
BBX 13 16 1 -1
BITMAP
F040
8080
8080
8080
7100
0900
0A20
0AD0
F288
0488
0488
0870
0888
0888
1088
10F8
ENDCHAR
STARTCHAR 215E
ENCODING 8542
SWIDTH 789 0
DWIDTH 15 0
BBX 13 16 1 -1
BITMAP
F840
1080
1080
1080
2100
2100
4220
42D0
4288
0488
0488
0870
0888
0888
1088
10F8
ENDCHAR
STARTCHAR 2190
ENCODING 8592
SWIDTH 631 0
DWIDTH 12 0
BBX 10 9 1 3
BITMAP
0800
0800
1000
2000
FFC0
4000
2000
1000
0800
ENDCHAR
STARTCHAR 2191
ENCODING 8593
SWIDTH 631 0
DWIDTH 12 0
BBX 9 10 1 2
BITMAP
0C00
1A00
2900
4880
8880
0800
0800
0800
0800
0800
ENDCHAR
STARTCHAR 2192
ENCODING 8594
SWIDTH 631 0
DWIDTH 12 0
BBX 10 9 1 3
BITMAP
0400
0200
0100
0080
FFC0
0080
0100
0200
0400
ENDCHAR
STARTCHAR 2193
ENCODING 8595
SWIDTH 631 0
DWIDTH 12 0
BBX 9 10 1 2
BITMAP
0800
0800
0800
0800
0800
C880
2900
1A00
0C00
0800
ENDCHAR
STARTCHAR 2202
ENCODING 8706
SWIDTH 473 0
DWIDTH 9 0
BBX 8 14 0 0
BITMAP
7C
02
02
01
01
3F
41
41
81
81
81
42
42
3C
ENDCHAR
STARTCHAR 2206
ENCODING 8710
SWIDTH 578 0
DWIDTH 11 0
BBX 10 14 0 0
BITMAP
0400
0C00
0A00
0A00
1200
1100
1100
2100
2080
2080
4080
4040
4040
FFC0
ENDCHAR
STARTCHAR 220F
ENCODING 8719
SWIDTH 578 0
DWIDTH 11 0
BBX 7 18 2 -4
BITMAP
FE
82
82
82
82
82
82
82
82
82
82
82
82
82
82
82
82
82
ENDCHAR
STARTCHAR 2211
ENCODING 8721
SWIDTH 473 0
DWIDTH 9 0
BBX 7 18 1 -4
BITMAP
FE
80
40
40
20
20
10
10
08
08
10
10
20
20
40
40
80
FE
ENDCHAR
STARTCHAR 2212
ENCODING 8722
SWIDTH 526 0
DWIDTH 10 0
BBX 7 1 1 7
BITMAP
FE
ENDCHAR
STARTCHAR 2215
ENCODING 8725
SWIDTH 210 0
DWIDTH 4 0
BBX 4 14 0 0
BITMAP
10
10
20
20
20
20
20
40
40
40
40
40
40
80
ENDCHAR
STARTCHAR 2219
ENCODING 8729
SWIDTH 157 0
DWIDTH 3 0
BBX 1 1 1 7
BITMAP
80
ENDCHAR
STARTCHAR 221A
ENCODING 8730
SWIDTH 631 0
DWIDTH 12 0
BBX 11 14 1 0
BITMAP
0020
0040
0040
0040
E080
1080
1080
1080
0900
0900
0900
0A00
0600
0400
ENDCHAR
STARTCHAR 221E
ENCODING 8734
SWIDTH 789 0
DWIDTH 15 0
BBX 13 6 1 4
BITMAP
78F0
8508
8208
8208
8588
7870
ENDCHAR
STARTCHAR 222B
ENCODING 8747
SWIDTH 263 0
DWIDTH 5 0
BBX 5 18 0 -4
BITMAP
38
40
40
40
20
20
20
20
20
20
20
20
20
20
20
10
10
E0
ENDCHAR
STARTCHAR 2248
ENCODING 8776
SWIDTH 526 0
DWIDTH 10 0
BBX 7 5 1 5
BITMAP
72
8E
00
20
DE
ENDCHAR
STARTCHAR 2260
ENCODING 8800
SWIDTH 526 0
DWIDTH 10 0
BBX 7 7 1 4
BITMAP
02
02
FC
08
10
FE
C0
ENDCHAR
STARTCHAR 2264
ENCODING 8804
SWIDTH 526 0
DWIDTH 10 0
BBX 7 11 1 0
BITMAP
02
04
38
C0
60
18
06
00
00
00
FE
ENDCHAR
STARTCHAR 2265
ENCODING 8805
SWIDTH 526 0
DWIDTH 10 0
BBX 7 11 1 0
BITMAP
80
60
18
06
0C
30
C0
00
00
00
FE
ENDCHAR
STARTCHAR 25CA
ENCODING 9674
SWIDTH 526 0
DWIDTH 10 0
BBX 7 14 1 0
BITMAP
10
28
24
24
44
42
82
82
42
44
24
28
28
10
ENDCHAR
STARTCHAR FB01
ENCODING 64257
SWIDTH 473 0
DWIDTH 9 0
BBX 8 16 0 0
BITMAP
1C
20
23
20
20
20
F9
21
21
21
21
21
21
21
21
21
ENDCHAR
STARTCHAR FB02
ENCODING 64258
SWIDTH 473 0
DWIDTH 9 0
BBX 7 16 0 0
BITMAP
1C
22
22
22
22
22
FA
22
22
22
22
22
22
22
22
22
ENDCHAR
ENDFONT
